<svg xmlns="http://www.w3.org/2000/svg" viewBox="0 0 120 120"><title>infrahats</title><rect width="120" height="120" rx="26" fill="#10161d"/><g transform="translate(-588.6 -321.8) scale(0.92)"><path fill="#DDDCD9" d="M700.995 374.675C717.488 374.528 725.331 383.566 729.815 398.289C735.541 399.783 738.241 399.849 743.254 404.075C757.315 415.928 749.967 439.637 731.781 441.069C730.316 441.184 728.769 440.907 727.692 439.826C728.779 438.092 731.029 437.378 732.987 436.973C745.082 434.469 750.309 419.256 742.985 409.483C738.541 403.552 732.883 402.974 725.987 401.987C723.383 387.695 718.527 381.165 703.944 378.685C687.926 378.956 680.864 386.537 677.797 401.716C671.516 402.715 667.055 403.372 662.397 408.245C654.148 416.875 656.675 430.093 667.166 435.493C669.546 436.718 673.803 436.536 676.008 438.373C676.63 438.891 676.386 439.106 676.341 439.886C673.281 443.149 666.317 439.974 663.143 437.978C658.56 435.052 655.338 430.414 654.191 425.098C652.863 419.247 653.967 413.106 657.25 408.084C661.569 401.55 667.26 399.7 674.486 398.207C677.558 383.404 686.048 376.449 700.995 374.675Z"/><path fill="#9CB292" d="M690.726 410.259C692.085 410.612 692.96 410.742 693.945 411.758C696.596 414.491 696.235 413.728 699.876 413.933C701.452 415.329 704.835 423.702 704.314 425.713C702.105 428.519 701.859 433.652 700.773 434.022C697.504 435.137 695.154 435.389 691.8 438.714C690.667 438.405 681.687 433.724 680.943 432.61C681.106 431.191 681.423 430.085 680.822 428.842C679.984 428.179 677.253 426.136 677.922 424.843C679.486 421.818 680.707 415.917 683.485 414.173C685.2 414.22 685.604 414.317 687.208 413.827C688.549 411.897 688.759 411.501 690.726 410.259ZM693.187 426.611C694.499 425.653 694.792 423.815 693.844 422.496C692.895 421.176 691.06 420.87 689.734 421.81C688.395 422.759 688.085 424.617 689.043 425.949C690.001 427.282 691.861 427.579 693.187 426.611Z"/><path fill="#61878A" d="M707.961 429.825C709.818 430.427 718.303 431.545 717.716 431.115C722.129 434.349 727.683 441.106 724.001 447.075C722.168 450.048 720.11 452.698 718.185 455.732C716.751 455.936 708.652 455.048 706.348 454.956C704.375 449.769 704.248 451.325 700.525 447.461C699.649 446.553 701.514 443.533 701.477 442.562C701.361 439.527 699.274 438.437 701.89 435.677C703.647 435.245 704.302 435.259 705.557 434.069C706.243 431.896 706.31 431.345 707.961 429.825Z"/></g></svg>
