<svg xmlns="http://www.w3.org/2000/svg" xmlns:xlink="http://www.w3.org/1999/xlink" viewBox="207.06 343.95 689.29 111.82"><path fill="#DDDCD9" d="M538.55 438.752C537.012 441.122 534.082 444.158 531.922 445.959C523.578 452.825 512.852 456.101 502.096 455.068C450.835 450.247 455.413 369.335 513.619 375.791C525.212 378.425 533.874 384.152 540.273 394.296C542.966 398.561 544.963 403.228 546.188 408.121C549.4 413.965 559.749 438.71 561.586 441.03C561.865 442.733 562.441 445.569 562.352 447.189C560.612 451.044 556.931 456.483 551.836 454.989C544.684 452.891 542.425 444.881 538.831 439.189L538.55 438.752ZM526.375 412.921C525.186 403.119 517.152 395.574 507.298 395.004C498.727 394.509 490.763 399.433 487.374 407.322C483.985 415.212 485.895 424.38 492.154 430.258C498.413 436.136 507.681 437.466 515.339 433.586C522.998 429.706 527.409 421.445 526.375 412.921Z"/><path fill="#9CB292" d="M513.619 375.791C525.212 378.425 533.874 384.152 540.273 394.296C542.966 398.561 544.963 403.228 546.188 408.121C549.4 413.965 559.749 438.71 561.586 441.03C561.865 442.733 562.441 445.569 562.352 447.189C560.612 451.044 556.931 456.483 551.836 454.989C544.684 452.891 542.425 444.881 538.831 439.189L538.55 438.752L538.593 438.462C537.502 435.257 528.988 416.401 527.258 412.875L526.375 412.921C525.186 403.119 517.152 395.574 507.298 395.004L508.401 394.574C503.685 385.349 504.692 381.515 513.619 375.791Z"/><path fill="#61878A" d="M546.188 408.121C549.4 413.965 559.749 438.71 561.586 441.03C561.865 442.733 562.441 445.569 562.352 447.189C560.612 451.044 556.931 456.483 551.836 454.989C544.684 452.891 542.425 444.881 538.831 439.189L538.55 438.752L538.593 438.462C545.78 427.856 546.599 420.276 546.188 408.121Z"/><path fill="#DDDCD9" d="M278.445 375.223C282.399 374.818 286.391 375.029 290.28 375.85C300.805 378.156 310.161 385.358 315.841 394.411C318.312 398.313 320.048 402.635 320.963 407.163C323.099 417.757 321.962 435.855 321.43 447.113C321.349 448.819 319.047 452.269 317.305 452.879C298.523 459.799 302.084 437.626 302.138 426.527C302.212 411.3 301.975 399.417 284.737 394.878C254.704 393.184 262.432 424.352 261.54 443.543C261.057 453.933 251.964 457.417 243.667 450.756C240.573 443.337 242.17 436.284 241.584 428.716C239.608 403.216 249.02 378.147 278.445 375.223Z"/><path fill="#DDDCD9" d="M424.984 375.261C432.777 374.318 443.511 377.347 449.975 382.179C455.781 386.519 462.481 393.582 455.433 400.676C448.247 407.909 441.913 399.75 435.753 396.659C429.314 393.428 418.777 393.915 413.714 399.628C405.306 408.183 406.873 420.329 407.003 431.215C407.11 438.416 409.092 453.04 398.155 454.262C391.63 454.803 387.044 449.749 387.14 443.329C387.294 432.958 386.39 421.457 387.551 411.177C389.785 391.39 404.974 376.536 424.984 375.261Z"/><path fill="#DDDCD9" d="M872.748 375.723C881.815 374.45 898.094 374.045 896.192 387.529C895.658 391.315 893.641 392.928 890.755 394.872C872.075 397.963 875.092 389.636 868.842 412.21C864.353 428.421 863.521 451.125 843.354 454.143C834.879 454.641 812.476 457.663 820.493 438.882C823.777 431.976 839.62 437.669 842.07 432.1C848.428 417.649 848.791 399.901 856.801 385.999C860.338 379.86 866.157 377.171 872.748 375.723Z"/><path fill="#DDDCD9" d="M561.722 363.814L562.399 363.33C566.004 369.484 568.168 380.132 576.253 384.665L576.294 385.005C582.069 390.602 589.587 393.317 597.279 395.007C589.031 398.176 587.77 399.826 583.389 406.91C576.334 418.317 591.433 460.755 567.697 453.316C565.65 452.667 563.317 449.283 562.352 447.189C562.441 445.569 561.865 442.733 561.586 441.03C561.581 430.9 561.43 420.233 561.737 410.153C561.465 394.808 561.748 379.203 561.722 363.814Z"/><path fill="#9CB292" d="M561.722 363.814L562.399 363.33C566.004 369.484 568.168 380.132 576.253 384.665L576.294 385.005C569.931 387.499 562.473 403.811 561.737 410.153C561.465 394.808 561.748 379.203 561.722 363.814Z"/><path fill="#DDDCD9" d="M337.033 412.426C336.904 393.463 334.172 373.201 347.544 358.409C354.659 350.503 364.043 345.11 374.698 344.064C387.825 342.251 392.133 361.763 378.063 363.517C353.314 366.603 356.956 387.72 357.17 407.421C351.499 407.243 344.944 406.27 340.756 409.985C339.972 410.68 337.935 412.257 337.033 412.426Z"/><path fill="#DDDCD9" d="M763.23 389.939C765.014 390.33 765.151 391.528 766.445 392.555C771.041 396.205 777.691 395.659 783.162 395.617C783.142 400.401 782.877 408.044 783.213 412.598C783.268 414.569 783.414 416.535 783.652 418.491C784.99 428.841 793.488 435.307 803.399 435.835C812.541 436.323 816.587 446.786 810.869 451.938C800.283 460.032 782.452 450.687 774.751 442.947C760.354 428.478 763.069 408.837 763.23 389.939Z"/><path fill="#DDDCD9" d="M214.079 376.217C223.498 375.088 227.178 379.504 227.09 388.606C226.9 408.173 228.426 428.397 226.447 447.791C226.17 450.506 222.603 452.94 220.301 453.934C218.485 454.214 216.532 454.359 214.731 453.918C212.28 453.318 209.961 451.737 208.813 449.426C206.539 444.849 206.646 386.893 208.147 382.217C209.177 379.008 211.28 377.692 214.079 376.217Z"/><path fill="#DDDCD9" d="M628.036 384.769C635.151 390.771 641.535 402.821 641.64 412.177C641.757 422.578 642.81 434.572 641.727 444.827C640.635 455.175 631.388 457.127 623.848 450.724C617.392 431.664 631.983 403.476 606.15 395.014C615.181 392.249 620.518 392.134 628.036 384.769Z"/><path fill="#9CB292" d="M357.17 407.421C362.094 407.422 365.87 407.48 370.772 407.887C376.156 411.549 378.612 417.189 375.002 423.528C372.202 428.443 362.587 425.739 357.698 427.389C357.285 428.849 357.252 429.175 357.135 430.697C357.223 435.472 357.325 439.789 357.08 444.728C356.628 453.823 345.959 457.308 339.992 451.246C335.838 447.025 336.947 435.844 337.051 429.99C336.752 424.977 337.009 417.614 337.033 412.426C337.935 412.257 339.972 410.68 340.756 409.985C344.944 406.27 351.499 407.243 357.17 407.421Z"/><path fill="#DDDCD9" d="M337.352 421.444C343.457 428.252 348.589 427.197 356.995 427.127L357.135 430.697C357.223 435.472 357.325 439.789 357.08 444.728C356.628 453.823 345.959 457.308 339.992 451.246C335.838 447.025 336.947 435.844 337.051 429.99C337.314 427.885 337.298 423.718 337.352 421.444Z"/><path fill="#61878A" d="M357.17 407.421C362.094 407.422 365.87 407.48 370.772 407.887C376.156 411.549 378.612 417.189 375.002 423.528C372.202 428.443 362.587 425.739 357.698 427.389C357.285 428.849 357.252 429.175 357.135 430.697L356.995 427.127C356.888 420.558 356.947 413.987 357.17 407.421Z"/><path fill="#DDDCD9" d="M763.15 380.775C763.108 377.811 763.362 371.895 763.04 369.236C761.234 354.328 779.242 347.691 783.264 363.9C783.719 367.357 783.637 372.531 783.444 376.105C790.612 375.505 802.778 374.697 803.855 384.834C804.12 387.466 803.248 390.086 801.457 392.033C798.169 395.568 793.225 395.599 788.759 395.602L783.584 395.608C783.566 400.337 783.743 408.15 783.213 412.598C782.877 408.044 783.142 400.401 783.162 395.617C777.691 395.659 771.041 396.205 766.445 392.555C765.151 391.528 765.014 390.33 763.23 389.939C763.388 387.46 763.193 383.369 763.15 380.775Z"/><path fill="#61878A" d="M783.264 363.9C783.719 367.357 783.637 372.531 783.444 376.105C790.612 375.505 802.778 374.697 803.855 384.834C804.12 387.466 803.248 390.086 801.457 392.033C798.169 395.568 793.225 395.599 788.759 395.602L783.584 395.608C783.566 400.337 783.743 408.15 783.213 412.598C782.877 408.044 783.142 400.401 783.162 395.617C782.977 389.136 783.091 382.41 783.119 375.907L783.264 363.9Z"/><path fill="#9CB292" d="M763.15 380.775C763.325 381.021 763.759 381.372 764.006 381.593C770.916 374.397 773.269 375.997 783.119 375.907C783.091 382.41 782.977 389.136 783.162 395.617C777.691 395.659 771.041 396.205 766.445 392.555C765.151 391.528 765.014 390.33 763.23 389.939C763.388 387.46 763.193 383.369 763.15 380.775Z"/><path fill="#DDDCD9" d="M700.995 374.675C717.488 374.528 725.331 383.566 729.815 398.289C735.541 399.783 738.241 399.849 743.254 404.075C757.315 415.928 749.967 439.637 731.781 441.069C730.316 441.184 728.769 440.907 727.692 439.826C728.779 438.092 731.029 437.378 732.987 436.973C745.082 434.469 750.309 419.256 742.985 409.483C738.541 403.552 732.883 402.974 725.987 401.987C723.383 387.695 718.527 381.165 703.944 378.685C687.926 378.956 680.864 386.537 677.797 401.716C671.516 402.715 667.055 403.372 662.397 408.245C654.148 416.875 656.675 430.093 667.166 435.493C669.546 436.718 673.803 436.536 676.008 438.373C676.63 438.891 676.386 439.106 676.341 439.886C673.281 443.149 666.317 439.974 663.143 437.978C658.56 435.052 655.338 430.414 654.191 425.098C652.863 419.247 653.967 413.106 657.25 408.084C661.569 401.55 667.26 399.7 674.486 398.207C677.558 383.404 686.048 376.449 700.995 374.675Z"/><path fill="#61878A" d="M561.722 363.814C561.88 358.611 561.302 350.505 565.435 346.769C568.816 343.781 575.741 343.438 578.547 347.368C581.188 351.066 582.012 356.215 582.888 360.629C584.436 368.428 592.107 373.628 599.737 374.886C592.51 375.87 581.283 379.052 576.253 384.665C568.168 380.132 566.004 369.484 562.399 363.33L561.722 363.814Z"/><path fill="#9CB292" d="M599.737 374.886C611.32 375.72 618.655 377.54 628.036 384.769C620.518 392.134 615.181 392.249 606.15 395.014L597.279 395.007C589.587 393.317 582.069 390.602 576.294 385.005L576.253 384.665C581.283 379.052 592.51 375.87 599.737 374.886Z"/><path fill="#DDDCD9" fill-rule="evenodd" d="M 703.300 424.000 C 703.300 424.112 703.298 424.223 703.295 424.335 C 703.291 424.447 703.287 424.558 703.279 424.670 C 703.271 424.781 703.263 424.893 703.249 425.003 C 703.234 425.114 703.223 425.226 703.192 425.334 C 703.161 425.442 703.147 425.555 703.061 425.654 C 702.975 425.753 702.918 425.861 702.677 425.929 C 702.437 425.997 702.067 426.046 701.618 426.061 C 701.169 426.075 700.429 426.021 699.981 426.015 C 699.533 426.009 699.170 426.001 698.931 426.024 C 698.692 426.048 698.636 426.104 698.547 426.156 C 698.458 426.209 698.438 426.276 698.399 426.340 C 698.359 426.403 698.337 426.471 698.310 426.538 C 698.282 426.604 698.259 426.671 698.233 426.738 C 698.207 426.805 698.182 426.872 698.156 426.939 C 698.130 427.005 698.103 427.072 698.076 427.138 C 698.048 427.204 698.020 427.270 697.992 427.336 C 697.963 427.401 697.934 427.466 697.904 427.532 C 697.875 427.597 697.844 427.662 697.817 427.728 C 697.789 427.795 697.757 427.858 697.740 427.931 C 697.723 428.004 697.689 428.065 697.715 428.165 C 697.740 428.265 697.741 428.345 697.893 428.531 C 698.046 428.716 698.308 428.967 698.629 429.279 C 698.950 429.591 699.511 430.077 699.819 430.405 C 700.126 430.732 700.352 431.029 700.474 431.247 C 700.596 431.465 700.560 431.582 700.551 431.712 C 700.542 431.843 700.472 431.933 700.418 432.031 C 700.363 432.130 700.292 432.217 700.224 432.305 C 700.156 432.394 700.083 432.478 700.010 432.563 C 699.936 432.647 699.861 432.729 699.784 432.810 C 699.708 432.892 699.630 432.972 699.551 433.051 C 699.472 433.130 699.392 433.208 699.310 433.284 C 699.229 433.361 699.147 433.436 699.063 433.510 C 698.978 433.583 698.894 433.656 698.805 433.724 C 698.717 433.792 698.630 433.863 698.531 433.918 C 698.433 433.972 698.343 434.042 698.212 434.051 C 698.082 434.060 697.965 434.096 697.747 433.974 C 697.529 433.852 697.232 433.626 696.905 433.319 C 696.577 433.011 696.091 432.450 695.779 432.129 C 695.467 431.808 695.216 431.546 695.031 431.393 C 694.845 431.241 694.765 431.240 694.665 431.215 C 694.565 431.189 694.504 431.223 694.431 431.240 C 694.358 431.257 694.295 431.289 694.228 431.317 C 694.162 431.344 694.097 431.375 694.032 431.404 C 693.966 431.434 693.901 431.463 693.836 431.492 C 693.770 431.520 693.704 431.548 693.638 431.576 C 693.572 431.603 693.505 431.630 693.439 431.656 C 693.372 431.682 693.305 431.707 693.238 431.733 C 693.171 431.759 693.104 431.782 693.038 431.810 C 692.971 431.837 692.903 431.859 692.840 431.899 C 692.776 431.938 692.709 431.958 692.656 432.047 C 692.604 432.136 692.548 432.192 692.524 432.431 C 692.501 432.670 692.509 433.033 692.515 433.481 C 692.521 433.929 692.575 434.669 692.561 435.118 C 692.546 435.567 692.497 435.937 692.429 436.177 C 692.361 436.418 692.253 436.475 692.154 436.561 C 692.055 436.647 691.942 436.661 691.834 436.692 C 691.726 436.723 691.614 436.734 691.503 436.749 C 691.393 436.763 691.281 436.771 691.170 436.779 C 691.058 436.787 690.947 436.791 690.835 436.795 C 690.723 436.798 690.612 436.800 690.500 436.800 C 690.388 436.800 690.277 436.798 690.165 436.795 C 690.053 436.791 689.942 436.787 689.830 436.779 C 689.719 436.771 689.607 436.763 689.497 436.749 C 689.386 436.734 689.274 436.723 689.166 436.692 C 689.058 436.661 688.945 436.647 688.846 436.561 C 688.747 436.475 688.639 436.418 688.571 436.177 C 688.503 435.937 688.454 435.567 688.439 435.118 C 688.425 434.669 688.479 433.929 688.485 433.481 C 688.491 433.033 688.499 432.670 688.476 432.431 C 688.452 432.192 688.396 432.136 688.344 432.047 C 688.291 431.958 688.224 431.938 688.160 431.899 C 688.097 431.859 688.029 431.837 687.962 431.810 C 687.896 431.782 687.829 431.759 687.762 431.733 C 687.695 431.707 687.628 431.682 687.561 431.656 C 687.495 431.630 687.428 431.603 687.362 431.576 C 687.296 431.548 687.230 431.520 687.164 431.492 C 687.099 431.463 687.034 431.434 686.968 431.404 C 686.903 431.375 686.838 431.344 686.772 431.317 C 686.705 431.289 686.642 431.257 686.569 431.240 C 686.496 431.223 686.435 431.189 686.335 431.215 C 686.235 431.240 686.155 431.241 685.969 431.393 C 685.784 431.546 685.533 431.808 685.221 432.129 C 684.909 432.450 684.423 433.011 684.095 433.319 C 683.768 433.626 683.471 433.852 683.253 433.974 C 683.035 434.096 682.918 434.060 682.788 434.051 C 682.657 434.042 682.567 433.972 682.469 433.918 C 682.370 433.863 682.283 433.792 682.195 433.724 C 682.106 433.656 682.022 433.583 681.937 433.510 C 681.853 433.436 681.771 433.361 681.690 433.284 C 681.608 433.208 681.528 433.130 681.449 433.051 C 681.370 432.972 681.292 432.892 681.216 432.810 C 681.139 432.729 681.064 432.647 680.990 432.563 C 680.917 432.478 680.844 432.394 680.776 432.305 C 680.708 432.217 680.637 432.130 680.582 432.031 C 680.528 431.933 680.458 431.843 680.449 431.712 C 680.440 431.582 680.404 431.465 680.526 431.247 C 680.648 431.029 680.874 430.732 681.181 430.405 C 681.489 430.077 682.050 429.591 682.371 429.279 C 682.692 428.967 682.954 428.716 683.107 428.531 C 683.259 428.345 683.260 428.265 683.285 428.165 C 683.311 428.065 683.277 428.004 683.260 427.931 C 683.243 427.858 683.211 427.795 683.183 427.728 C 683.156 427.662 683.125 427.597 683.096 427.532 C 683.066 427.466 683.037 427.401 683.008 427.336 C 682.980 427.270 682.952 427.204 682.924 427.138 C 682.897 427.072 682.870 427.005 682.844 426.939 C 682.818 426.872 682.793 426.805 682.767 426.738 C 682.741 426.671 682.718 426.604 682.690 426.538 C 682.663 426.471 682.641 426.403 682.601 426.340 C 682.562 426.276 682.542 426.209 682.453 426.156 C 682.364 426.104 682.308 426.048 682.069 426.024 C 681.830 426.001 681.467 426.009 681.019 426.015 C 680.571 426.021 679.831 426.075 679.382 426.061 C 678.933 426.046 678.563 425.997 678.323 425.929 C 678.082 425.861 678.025 425.753 677.939 425.654 C 677.853 425.555 677.839 425.442 677.808 425.334 C 677.777 425.226 677.766 425.114 677.751 425.003 C 677.737 424.893 677.729 424.781 677.721 424.670 C 677.713 424.558 677.709 424.447 677.705 424.335 C 677.702 424.223 677.700 424.112 677.700 424.000 C 677.700 423.888 677.702 423.777 677.705 423.665 C 677.709 423.553 677.713 423.442 677.721 423.330 C 677.729 423.219 677.737 423.107 677.751 422.997 C 677.766 422.886 677.777 422.774 677.808 422.666 C 677.839 422.558 677.853 422.445 677.939 422.346 C 678.025 422.247 678.082 422.139 678.323 422.071 C 678.563 422.003 678.933 421.954 679.382 421.939 C 679.831 421.925 680.571 421.979 681.019 421.985 C 681.467 421.991 681.830 421.999 682.069 421.976 C 682.308 421.952 682.364 421.896 682.453 421.844 C 682.542 421.791 682.562 421.724 682.601 421.660 C 682.641 421.597 682.663 421.529 682.690 421.462 C 682.718 421.396 682.741 421.329 682.767 421.262 C 682.793 421.195 682.818 421.128 682.844 421.061 C 682.870 420.995 682.897 420.928 682.924 420.862 C 682.952 420.796 682.980 420.730 683.008 420.664 C 683.037 420.599 683.066 420.534 683.096 420.468 C 683.125 420.403 683.156 420.338 683.183 420.272 C 683.211 420.205 683.243 420.142 683.260 420.069 C 683.277 419.996 683.311 419.935 683.285 419.835 C 683.260 419.735 683.259 419.655 683.107 419.469 C 682.954 419.284 682.692 419.033 682.371 418.721 C 682.050 418.409 681.489 417.923 681.181 417.595 C 680.874 417.268 680.648 416.971 680.526 416.753 C 680.404 416.535 680.440 416.418 680.449 416.288 C 680.458 416.157 680.528 416.067 680.582 415.969 C 680.637 415.870 680.708 415.783 680.776 415.695 C 680.844 415.606 680.917 415.522 680.990 415.437 C 681.064 415.353 681.139 415.271 681.216 415.190 C 681.292 415.108 681.370 415.028 681.449 414.949 C 681.528 414.870 681.608 414.792 681.690 414.716 C 681.771 414.639 681.853 414.564 681.937 414.490 C 682.022 414.417 682.106 414.344 682.195 414.276 C 682.283 414.208 682.370 414.137 682.469 414.082 C 682.567 414.028 682.657 413.958 682.788 413.949 C 682.918 413.940 683.035 413.904 683.253 414.026 C 683.471 414.148 683.768 414.374 684.095 414.681 C 684.423 414.989 684.909 415.550 685.221 415.871 C 685.533 416.192 685.784 416.454 685.969 416.607 C 686.155 416.759 686.235 416.760 686.335 416.785 C 686.435 416.811 686.496 416.777 686.569 416.760 C 686.642 416.743 686.705 416.711 686.772 416.683 C 686.838 416.656 686.903 416.625 686.968 416.596 C 687.034 416.566 687.099 416.537 687.164 416.508 C 687.230 416.480 687.296 416.452 687.362 416.424 C 687.428 416.397 687.495 416.370 687.561 416.344 C 687.628 416.318 687.695 416.293 687.762 416.267 C 687.829 416.241 687.896 416.218 687.962 416.190 C 688.029 416.163 688.097 416.141 688.160 416.101 C 688.224 416.062 688.291 416.042 688.344 415.953 C 688.396 415.864 688.452 415.808 688.476 415.569 C 688.499 415.330 688.491 414.967 688.485 414.519 C 688.479 414.071 688.425 413.331 688.439 412.882 C 688.454 412.433 688.503 412.063 688.571 411.823 C 688.639 411.582 688.747 411.525 688.846 411.439 C 688.945 411.353 689.058 411.339 689.166 411.308 C 689.274 411.277 689.386 411.266 689.497 411.251 C 689.607 411.237 689.719 411.229 689.830 411.221 C 689.942 411.213 690.053 411.209 690.165 411.205 C 690.277 411.202 690.388 411.200 690.500 411.200 C 690.612 411.200 690.723 411.202 690.835 411.205 C 690.947 411.209 691.058 411.213 691.170 411.221 C 691.281 411.229 691.393 411.237 691.503 411.251 C 691.614 411.266 691.726 411.277 691.834 411.308 C 691.942 411.339 692.055 411.353 692.154 411.439 C 692.253 411.525 692.361 411.582 692.429 411.823 C 692.497 412.063 692.546 412.433 692.561 412.882 C 692.575 413.331 692.521 414.071 692.515 414.519 C 692.509 414.967 692.501 415.330 692.524 415.569 C 692.548 415.808 692.604 415.864 692.656 415.953 C 692.709 416.042 692.776 416.062 692.840 416.101 C 692.903 416.141 692.971 416.163 693.038 416.190 C 693.104 416.218 693.171 416.241 693.238 416.267 C 693.305 416.293 693.372 416.318 693.439 416.344 C 693.505 416.370 693.572 416.397 693.638 416.424 C 693.704 416.452 693.770 416.480 693.836 416.508 C 693.901 416.537 693.966 416.566 694.032 416.596 C 694.097 416.625 694.162 416.656 694.228 416.683 C 694.295 416.711 694.358 416.743 694.431 416.760 C 694.504 416.777 694.565 416.811 694.665 416.785 C 694.765 416.760 694.845 416.759 695.031 416.607 C 695.216 416.454 695.467 416.192 695.779 415.871 C 696.091 415.550 696.577 414.989 696.905 414.681 C 697.232 414.374 697.529 414.148 697.747 414.026 C 697.965 413.904 698.082 413.940 698.212 413.949 C 698.343 413.958 698.433 414.028 698.531 414.082 C 698.630 414.137 698.717 414.208 698.805 414.276 C 698.894 414.344 698.978 414.417 699.063 414.490 C 699.147 414.564 699.229 414.639 699.310 414.716 C 699.392 414.792 699.472 414.870 699.551 414.949 C 699.630 415.028 699.708 415.108 699.784 415.190 C 699.861 415.271 699.936 415.353 700.010 415.437 C 700.083 415.522 700.156 415.606 700.224 415.695 C 700.292 415.783 700.363 415.870 700.418 415.969 C 700.472 416.067 700.542 416.157 700.551 416.288 C 700.560 416.418 700.596 416.535 700.474 416.753 C 700.352 416.971 700.126 417.268 699.819 417.595 C 699.511 417.923 698.950 418.409 698.629 418.721 C 698.308 419.033 698.046 419.284 697.893 419.469 C 697.741 419.655 697.740 419.735 697.715 419.835 C 697.689 419.935 697.723 419.996 697.740 420.069 C 697.757 420.142 697.789 420.205 697.817 420.272 C 697.844 420.338 697.875 420.403 697.904 420.468 C 697.934 420.534 697.963 420.599 697.992 420.664 C 698.020 420.730 698.048 420.796 698.076 420.862 C 698.103 420.928 698.130 420.995 698.156 421.061 C 698.182 421.128 698.207 421.195 698.233 421.262 C 698.259 421.329 698.282 421.396 698.310 421.462 C 698.337 421.529 698.359 421.597 698.399 421.660 C 698.438 421.724 698.458 421.791 698.547 421.844 C 698.636 421.896 698.692 421.952 698.931 421.976 C 699.170 421.999 699.533 421.991 699.981 421.985 C 700.429 421.979 701.169 421.925 701.618 421.939 C 702.067 421.954 702.437 422.003 702.677 422.071 C 702.918 422.139 702.975 422.247 703.061 422.346 C 703.147 422.445 703.161 422.558 703.192 422.666 C 703.223 422.774 703.234 422.886 703.249 422.997 C 703.263 423.107 703.271 423.219 703.279 423.330 C 703.287 423.442 703.291 423.553 703.295 423.665 C 703.298 423.777 703.300 423.888 703.300 424.000 Z M 687.100 424.000 A 3.400 3.400 0 1 0 693.900 424.000 A 3.400 3.400 0 1 0 687.100 424.000 Z"/><path fill="#DDDCD9" fill-rule="evenodd" d="M 724.500 441.500 C 724.500 441.600 724.499 441.701 724.495 441.801 C 724.492 441.901 724.488 442.002 724.481 442.102 C 724.474 442.202 724.467 442.302 724.454 442.401 C 724.442 442.501 724.432 442.601 724.404 442.699 C 724.377 442.796 724.364 442.897 724.289 442.986 C 724.214 443.076 724.164 443.173 723.954 443.235 C 723.744 443.297 723.423 443.343 723.031 443.359 C 722.640 443.375 721.996 443.331 721.606 443.329 C 721.216 443.327 720.900 443.323 720.691 443.346 C 720.482 443.370 720.432 443.422 720.354 443.471 C 720.276 443.519 720.258 443.581 720.223 443.640 C 720.188 443.698 720.168 443.760 720.143 443.821 C 720.118 443.882 720.096 443.943 720.073 444.005 C 720.049 444.066 720.026 444.127 720.002 444.188 C 719.978 444.249 719.954 444.310 719.929 444.370 C 719.904 444.431 719.878 444.491 719.852 444.551 C 719.826 444.611 719.799 444.670 719.772 444.730 C 719.745 444.790 719.717 444.849 719.692 444.910 C 719.666 444.970 719.636 445.028 719.620 445.094 C 719.604 445.161 719.573 445.217 719.594 445.307 C 719.614 445.397 719.613 445.469 719.744 445.633 C 719.875 445.797 720.101 446.017 720.379 446.292 C 720.656 446.566 721.142 446.991 721.408 447.278 C 721.673 447.566 721.868 447.827 721.972 448.019 C 722.077 448.211 722.043 448.315 722.033 448.431 C 722.023 448.548 721.961 448.628 721.911 448.716 C 721.862 448.805 721.798 448.883 721.737 448.962 C 721.676 449.041 721.610 449.117 721.544 449.193 C 721.478 449.269 721.410 449.343 721.341 449.416 C 721.273 449.489 721.203 449.561 721.132 449.632 C 721.061 449.703 720.989 449.773 720.916 449.841 C 720.843 449.910 720.769 449.978 720.693 450.044 C 720.617 450.110 720.541 450.176 720.462 450.237 C 720.383 450.298 720.305 450.362 720.216 450.411 C 720.128 450.461 720.048 450.523 719.931 450.533 C 719.815 450.543 719.711 450.577 719.519 450.472 C 719.327 450.368 719.066 450.173 718.778 449.908 C 718.491 449.642 718.066 449.156 717.792 448.879 C 717.517 448.601 717.297 448.375 717.133 448.244 C 716.969 448.113 716.897 448.114 716.807 448.094 C 716.717 448.073 716.661 448.104 716.594 448.120 C 716.528 448.136 716.470 448.166 716.410 448.192 C 716.349 448.217 716.290 448.245 716.230 448.272 C 716.170 448.299 716.111 448.326 716.051 448.352 C 715.991 448.378 715.931 448.404 715.870 448.429 C 715.810 448.454 715.749 448.478 715.688 448.502 C 715.627 448.526 715.566 448.549 715.505 448.573 C 715.443 448.596 715.382 448.618 715.321 448.643 C 715.260 448.668 715.198 448.688 715.140 448.723 C 715.081 448.758 715.019 448.776 714.971 448.854 C 714.922 448.932 714.870 448.982 714.846 449.191 C 714.823 449.400 714.827 449.716 714.829 450.106 C 714.831 450.496 714.875 451.140 714.859 451.531 C 714.843 451.923 714.797 452.244 714.735 452.454 C 714.673 452.664 714.576 452.714 714.486 452.789 C 714.397 452.864 714.296 452.877 714.199 452.904 C 714.101 452.932 714.001 452.942 713.901 452.954 C 713.802 452.967 713.702 452.974 713.602 452.981 C 713.502 452.988 713.401 452.992 713.301 452.995 C 713.201 452.999 713.100 453.000 713.000 453.000 C 712.900 453.000 712.799 452.999 712.699 452.995 C 712.599 452.992 712.498 452.988 712.398 452.981 C 712.298 452.974 712.198 452.967 712.099 452.954 C 711.999 452.942 711.899 452.932 711.801 452.904 C 711.704 452.877 711.603 452.864 711.514 452.789 C 711.424 452.714 711.327 452.664 711.265 452.454 C 711.203 452.244 711.157 451.923 711.141 451.531 C 711.125 451.140 711.169 450.496 711.171 450.106 C 711.173 449.716 711.177 449.400 711.154 449.191 C 711.130 448.982 711.078 448.932 711.029 448.854 C 710.981 448.776 710.919 448.758 710.860 448.723 C 710.802 448.688 710.740 448.668 710.679 448.643 C 710.618 448.618 710.557 448.596 710.495 448.573 C 710.434 448.549 710.373 448.526 710.312 448.502 C 710.251 448.478 710.190 448.454 710.130 448.429 C 710.069 448.404 710.009 448.378 709.949 448.352 C 709.889 448.326 709.830 448.299 709.770 448.272 C 709.710 448.245 709.651 448.217 709.590 448.192 C 709.530 448.166 709.472 448.136 709.406 448.120 C 709.339 448.104 709.283 448.073 709.193 448.094 C 709.103 448.114 709.031 448.113 708.867 448.244 C 708.703 448.375 708.483 448.601 708.208 448.879 C 707.934 449.156 707.509 449.642 707.222 449.908 C 706.934 450.173 706.673 450.368 706.481 450.472 C 706.289 450.577 706.185 450.543 706.069 450.533 C 705.952 450.523 705.872 450.461 705.784 450.411 C 705.695 450.362 705.617 450.298 705.538 450.237 C 705.459 450.176 705.383 450.110 705.307 450.044 C 705.231 449.978 705.157 449.910 705.084 449.841 C 705.011 449.773 704.939 449.703 704.868 449.632 C 704.797 449.561 704.727 449.489 704.659 449.416 C 704.590 449.343 704.522 449.269 704.456 449.193 C 704.390 449.117 704.324 449.041 704.263 448.962 C 704.202 448.883 704.138 448.805 704.089 448.716 C 704.039 448.628 703.977 448.548 703.967 448.431 C 703.957 448.315 703.923 448.211 704.028 448.019 C 704.132 447.827 704.327 447.566 704.592 447.278 C 704.858 446.991 705.344 446.566 705.621 446.292 C 705.899 446.017 706.125 445.797 706.256 445.633 C 706.387 445.469 706.386 445.397 706.406 445.307 C 706.427 445.217 706.396 445.161 706.380 445.094 C 706.364 445.028 706.334 444.970 706.308 444.910 C 706.283 444.849 706.255 444.790 706.228 444.730 C 706.201 444.670 706.174 444.611 706.148 444.551 C 706.122 444.491 706.096 444.431 706.071 444.370 C 706.046 444.310 706.022 444.249 705.998 444.188 C 705.974 444.127 705.951 444.066 705.927 444.005 C 705.904 443.943 705.882 443.882 705.857 443.821 C 705.832 443.760 705.812 443.698 705.777 443.640 C 705.742 443.581 705.724 443.519 705.646 443.471 C 705.568 443.422 705.518 443.370 705.309 443.346 C 705.100 443.323 704.784 443.327 704.394 443.329 C 704.004 443.331 703.360 443.375 702.969 443.359 C 702.577 443.343 702.256 443.297 702.046 443.235 C 701.836 443.173 701.786 443.076 701.711 442.986 C 701.636 442.897 701.623 442.796 701.596 442.699 C 701.568 442.601 701.558 442.501 701.546 442.401 C 701.533 442.302 701.526 442.202 701.519 442.102 C 701.512 442.002 701.508 441.901 701.505 441.801 C 701.501 441.701 701.500 441.600 701.500 441.500 C 701.500 441.400 701.501 441.299 701.505 441.199 C 701.508 441.099 701.512 440.998 701.519 440.898 C 701.526 440.798 701.533 440.698 701.546 440.599 C 701.558 440.499 701.568 440.399 701.596 440.301 C 701.623 440.204 701.636 440.103 701.711 440.014 C 701.786 439.924 701.836 439.827 702.046 439.765 C 702.256 439.703 702.577 439.657 702.969 439.641 C 703.360 439.625 704.004 439.669 704.394 439.671 C 704.784 439.673 705.100 439.677 705.309 439.654 C 705.518 439.630 705.568 439.578 705.646 439.529 C 705.724 439.481 705.742 439.419 705.777 439.360 C 705.812 439.302 705.832 439.240 705.857 439.179 C 705.882 439.118 705.904 439.057 705.927 438.995 C 705.951 438.934 705.974 438.873 705.998 438.812 C 706.022 438.751 706.046 438.690 706.071 438.630 C 706.096 438.569 706.122 438.509 706.148 438.449 C 706.174 438.389 706.201 438.330 706.228 438.270 C 706.255 438.210 706.283 438.151 706.308 438.090 C 706.334 438.030 706.364 437.972 706.380 437.906 C 706.396 437.839 706.427 437.783 706.406 437.693 C 706.386 437.603 706.387 437.531 706.256 437.367 C 706.125 437.203 705.899 436.983 705.621 436.708 C 705.344 436.434 704.858 436.009 704.592 435.722 C 704.327 435.434 704.132 435.173 704.028 434.981 C 703.923 434.789 703.957 434.685 703.967 434.569 C 703.977 434.452 704.039 434.372 704.089 434.284 C 704.138 434.195 704.202 434.117 704.263 434.038 C 704.324 433.959 704.390 433.883 704.456 433.807 C 704.522 433.731 704.590 433.657 704.659 433.584 C 704.727 433.511 704.797 433.439 704.868 433.368 C 704.939 433.297 705.011 433.227 705.084 433.159 C 705.157 433.090 705.231 433.022 705.307 432.956 C 705.383 432.890 705.459 432.824 705.538 432.763 C 705.617 432.702 705.695 432.638 705.784 432.589 C 705.872 432.539 705.952 432.477 706.069 432.467 C 706.185 432.457 706.289 432.423 706.481 432.528 C 706.673 432.632 706.934 432.827 707.222 433.092 C 707.509 433.358 707.934 433.844 708.208 434.121 C 708.483 434.399 708.703 434.625 708.867 434.756 C 709.031 434.887 709.103 434.886 709.193 434.906 C 709.283 434.927 709.339 434.896 709.406 434.880 C 709.472 434.864 709.530 434.834 709.590 434.808 C 709.651 434.783 709.710 434.755 709.770 434.728 C 709.830 434.701 709.889 434.674 709.949 434.648 C 710.009 434.622 710.069 434.596 710.130 434.571 C 710.190 434.546 710.251 434.522 710.312 434.498 C 710.373 434.474 710.434 434.451 710.495 434.427 C 710.557 434.404 710.618 434.382 710.679 434.357 C 710.740 434.332 710.802 434.312 710.860 434.277 C 710.919 434.242 710.981 434.224 711.029 434.146 C 711.078 434.068 711.130 434.018 711.154 433.809 C 711.177 433.600 711.173 433.284 711.171 432.894 C 711.169 432.504 711.125 431.860 711.141 431.469 C 711.157 431.077 711.203 430.756 711.265 430.546 C 711.327 430.336 711.424 430.286 711.514 430.211 C 711.603 430.136 711.704 430.123 711.801 430.096 C 711.899 430.068 711.999 430.058 712.099 430.046 C 712.198 430.033 712.298 430.026 712.398 430.019 C 712.498 430.012 712.599 430.008 712.699 430.005 C 712.799 430.001 712.900 430.000 713.000 430.000 C 713.100 430.000 713.201 430.001 713.301 430.005 C 713.401 430.008 713.502 430.012 713.602 430.019 C 713.702 430.026 713.802 430.033 713.901 430.046 C 714.001 430.058 714.101 430.068 714.199 430.096 C 714.296 430.123 714.397 430.136 714.486 430.211 C 714.576 430.286 714.673 430.336 714.735 430.546 C 714.797 430.756 714.843 431.077 714.859 431.469 C 714.875 431.860 714.831 432.504 714.829 432.894 C 714.827 433.284 714.823 433.600 714.846 433.809 C 714.870 434.018 714.922 434.068 714.971 434.146 C 715.019 434.224 715.081 434.242 715.140 434.277 C 715.198 434.312 715.260 434.332 715.321 434.357 C 715.382 434.382 715.443 434.404 715.505 434.427 C 715.566 434.451 715.627 434.474 715.688 434.498 C 715.749 434.522 715.810 434.546 715.870 434.571 C 715.931 434.596 715.991 434.622 716.051 434.648 C 716.111 434.674 716.170 434.701 716.230 434.728 C 716.290 434.755 716.349 434.783 716.410 434.808 C 716.470 434.834 716.528 434.864 716.594 434.880 C 716.661 434.896 716.717 434.927 716.807 434.906 C 716.897 434.886 716.969 434.887 717.133 434.756 C 717.297 434.625 717.517 434.399 717.792 434.121 C 718.066 433.844 718.491 433.358 718.778 433.092 C 719.066 432.827 719.327 432.632 719.519 432.528 C 719.711 432.423 719.815 432.457 719.931 432.467 C 720.048 432.477 720.128 432.539 720.216 432.589 C 720.305 432.638 720.383 432.702 720.462 432.763 C 720.541 432.824 720.617 432.890 720.693 432.956 C 720.769 433.022 720.843 433.090 720.916 433.159 C 720.989 433.227 721.061 433.297 721.132 433.368 C 721.203 433.439 721.273 433.511 721.341 433.584 C 721.410 433.657 721.478 433.731 721.544 433.807 C 721.610 433.883 721.676 433.959 721.737 434.038 C 721.798 434.117 721.862 434.195 721.911 434.284 C 721.961 434.372 722.023 434.452 722.033 434.569 C 722.043 434.685 722.077 434.789 721.972 434.981 C 721.868 435.173 721.673 435.434 721.408 435.722 C 721.142 436.009 720.656 436.434 720.379 436.708 C 720.101 436.983 719.875 437.203 719.744 437.367 C 719.613 437.531 719.614 437.603 719.594 437.693 C 719.573 437.783 719.604 437.839 719.620 437.906 C 719.636 437.972 719.666 438.030 719.692 438.090 C 719.717 438.151 719.745 438.210 719.772 438.270 C 719.799 438.330 719.826 438.389 719.852 438.449 C 719.878 438.509 719.904 438.569 719.929 438.630 C 719.954 438.690 719.978 438.751 720.002 438.812 C 720.026 438.873 720.049 438.934 720.073 438.995 C 720.096 439.057 720.118 439.118 720.143 439.179 C 720.168 439.240 720.188 439.302 720.223 439.360 C 720.258 439.419 720.276 439.481 720.354 439.529 C 720.432 439.578 720.482 439.630 720.691 439.654 C 720.900 439.677 721.216 439.673 721.606 439.671 C 721.996 439.669 722.640 439.625 723.031 439.641 C 723.423 439.657 723.744 439.703 723.954 439.765 C 724.164 439.827 724.214 439.924 724.289 440.014 C 724.364 440.103 724.377 440.204 724.404 440.301 C 724.432 440.399 724.442 440.499 724.454 440.599 C 724.467 440.698 724.474 440.798 724.481 440.898 C 724.488 440.998 724.492 441.099 724.495 441.199 C 724.499 441.299 724.500 441.400 724.500 441.500 Z M 710.000 441.500 A 3.000 3.000 0 1 0 716.000 441.500 A 3.000 3.000 0 1 0 710.000 441.500 Z"/></svg>