<?xml version="1.0" encoding="utf-8"?>
<!-- Generator: Adobe Illustrator 27.9.0, SVG Export Plug-In . SVG Version: 6.00 Build 0)  -->
<svg version="1.1" id="Layer_1" xmlns="http://www.w3.org/2000/svg" xmlns:xlink="http://www.w3.org/1999/xlink" x="0px" y="0px"
	 viewBox="0 0 1424.5 453.3" style="enable-background:new 0 0 1424.5 453.3;" xml:space="preserve">
<style type="text/css">
	.st0{fill:#071015;}
	.st1{fill:#FFE599;}
	.st2{fill:#B4E7E2;}
	.st3{fill:#C99DB1;}
	.st4{fill:#024058;}
	.st5{fill:#741B47;}
</style>
<g>
	<g>
		<path class="st0" d="M596.6,237.8l32.5,28.5c-11.1,14.6-28.5,27.1-62.9,27.1c-43.7,0-74-28.5-74-70.5s30.4-70.5,74-70.5
			c34.4,0,51.8,12.5,62.9,27.1L596.6,208c-6.8-9.5-14.9-14.9-27.7-14.9c-15.2,0-26.6,8.1-26.6,29.8c0,21.7,11.4,29.8,26.6,29.8
			C581.7,252.7,589.8,247.3,596.6,237.8z"/>
		<path class="st0" d="M638.1,222.9c0-52.9,36.3-70.5,60.8-70.5c21.7,0,30.9,7.6,37.7,16.8h0.5v-14.1h48.8v135.6H737v-14.1h-0.5
			c-6.8,9.2-17.6,16.8-39.1,16.8C673,293.4,638.1,275.8,638.1,222.9z M737,222.9c0-19-10.6-29.8-25-29.8
			c-14.4,0-23.9,10.6-23.9,29.8c0,19,9.5,29.8,23.9,29.8C726.5,252.7,737,241.9,737,222.9z"/>
		<path class="st0" d="M957.6,222.9c0,52.9-36.3,70.5-60.8,70.5c-21.7,0-30.9-7.6-37.7-16.8h-0.5v68.3h-48.8V155.1h48.8v14.1h0.5
			c6.8-9.2,17.6-16.8,39.1-16.8C922.6,152.4,957.6,170,957.6,222.9z M883.6,252.7c14.4,0,23.9-10.6,23.9-29.8
			c0-19-9.5-29.8-23.9-29.8c-14.4,0-25,10.8-25,29.8S869.2,252.7,883.6,252.7z"/>
		<path class="st0" d="M1041.4,290.7h-48.8v-94.9h-27.1v-40.7h75.9V290.7z M985.8,114.4c0-16.5,11.9-27.1,28.5-27.1
			c16.3,0,28.5,10.6,28.5,27.1c0,16.5-12.2,27.1-28.5,27.1C997.7,141.5,985.8,131,985.8,114.4z"/>
		<path class="st0" d="M1142,87.5c11.2,0.8,21.8,2.8,31.9,7.5c8.2,3.8,18.2,10.1,18.2,10.1s-19.8,23.6-27.9,33.2
			c-8.3-5-16.9-9.1-23.9-7.4c-4.8,1.1-9.6,6.5-9.6,14.9c0,2.2-0.1,7.1-0.1,7.1h41.3v41.3h-42.5v96.5h-51.3v-96.5l-16.9,0.1v-41.4
			h16.9c0,0-0.2-14.9,1.2-21.5c2.6-12.5,8.3-24.6,18.7-32.4C1110.4,89.6,1126.8,86.5,1142,87.5z"/>
		<path class="st0" d="M1248.2,239.2c0,6.8,3.3,12.2,11.1,12.2c4.9,0,8.7-2.2,11.9-5.4l17.6,32.5c-12.2,9.5-23.9,14.9-43.4,14.9
			c-29.6,0-46.1-19-46.1-51.5v-141h48.8V239.2z"/>
		<path class="st0" d="M1424.5,155.1l-55.6,143.7c-12.7,33.1-28.7,48.8-62.4,48.8c-19.5,0-35.3-7.3-44.7-17.6l25.8-32.5
			c3.8,4.1,10.6,6.8,17.6,6.8c12.2,0,17.6-7.1,20.1-13.6l1.4-3.3l-56.7-132.3h52.9l28.2,67.8h0.5l21.4-67.8H1424.5z"/>
	</g>
	<g>
		<g>
			<g>
				<path class="st1" d="M340,226.6c0,31.3-12.7,59.6-33.2,80.1l-80.1,0v-80.1v-80.1h80.1C327.3,167,340,195.3,340,226.6z"/>
				<polygon class="st2" points="226.6,452.3 146.5,306.8 226.6,226.6 306.8,306.8 				"/>
				<polygon class="st3" points="306.8,146.5 226.6,226.6 146.5,146.5 226.6,1 				"/>
			</g>
			<g>
				<path class="st0" d="M113.3,226.6c0,31.3,12.7,59.6,33.2,80.1l0,80.1H66.4C25.4,345.9,0,289.2,0,226.6
					c0-62.6,25.4-119.2,66.4-160.3h80.1l0,80.1C126,167,113.3,195.4,113.3,226.6z"/>
				<path class="st4" d="M146.5,306.8l-80.1,80.1c41,41,97.7,66.4,160.3,66.4c62.6,0,119.2-25.4,160.3-66.4v0l-80.1-80.1
					c-20.5,20.5-48.8,33.2-80.1,33.2C195.4,340,167,327.3,146.5,306.8z"/>
				<path class="st5" d="M306.8,146.5l80.1-80.1C345.9,25.4,289.2,0,226.6,0C164.1,0,107.4,25.4,66.4,66.4v0l80.1,80.1
					c20.5-20.5,48.8-33.2,80.1-33.2C257.9,113.3,286.3,126,306.8,146.5z"/>
			</g>
		</g>
	</g>
</g>
</svg>
