<svg preserveAspectRatio="none" width="100%" height="100%" overflow="visible" style="display: block;" viewBox="0 0 113.993 24.0191" fill="none" xmlns="http://www.w3.org/2000/svg">
<g id="Group">
<path id="Vector" d="M13.9426 16.4538L13.4966 16.4073C13.3931 16.4968 13.468 16.6362 13.4466 16.7328C13.4074 16.9044 13.3074 17.0654 13.2182 17.2156L12.7329 18.0202C12.558 18.3135 12.3546 18.5531 12.0941 18.7784C12.012 18.8499 11.8835 18.9643 11.8728 19.0681L11.8443 19.4221C11.8336 19.5651 11.7872 19.6796 11.7408 19.8584C11.7551 19.8727 11.7194 19.8369 11.7015 19.8119C11.698 19.7511 11.698 19.744 11.7015 19.7976L11.6552 19.9156C11.6552 19.9156 11.6801 19.9442 11.673 19.9371L11.7123 19.8906C11.723 20.3662 11.6302 20.6881 11.8728 21.153L12.1155 21.6179C12.2012 21.7824 12.3046 21.9398 12.4081 22.0828L12.5937 22.3367C12.7079 22.4941 12.815 22.6765 12.9006 22.8481C12.9113 22.866 12.9648 22.8946 12.9577 22.9125C12.9541 22.9268 12.9327 22.9769 12.9399 22.9947C12.9755 23.0841 13.0291 23.263 13.0576 23.3667L13.0826 23.4596C13.0826 23.4596 13.0326 23.4704 13.0184 23.4668L12.9756 23.4525L12.9256 23.499C12.9256 23.499 12.9042 23.5526 12.9113 23.5634L12.9506 23.6277C12.9506 23.6277 12.9256 23.6492 12.9149 23.6492L12.8756 23.6349L12.8221 23.8387C12.6794 23.9317 12.6472 23.71 12.5402 23.8709L12.1583 23.6242C12.1334 23.617 12.0834 23.6027 12.1084 23.6099L12.1512 23.6528L12.1726 23.6778C12.1726 23.6778 12.2226 23.7457 12.2154 23.7636L12.1833 23.7744C12.0691 23.7028 12.0905 23.6563 11.9371 23.6313C11.7051 23.4418 11.152 22.9053 10.9807 22.6765C10.7487 22.3546 10.5132 22.0649 10.267 21.7609L9.83515 21.2281C9.6246 20.967 9.47115 20.6845 9.29272 20.4056C9.02151 19.98 8.93229 20.0301 8.91088 19.4114L9.22135 18.4816C9.307 18.2241 9.43547 17.9952 9.57464 17.7663C9.74951 17.4766 9.77092 17.2907 9.95649 16.9724L10.167 16.6076L10.1171 16.5933L9.5568 17.1297L7.98303 18.3349C7.77605 18.4923 7.61903 18.6818 7.40848 18.8284C7.19793 18.9751 7.04805 19.1682 6.93742 19.4006C6.79825 19.6903 6.4057 20.1445 6.22013 20.4771C5.95248 20.9563 5.77762 21.389 5.82758 21.9648C5.83472 22.0399 5.8597 22.1257 5.8704 22.1937L5.90609 22.4154C5.90609 22.4154 5.91679 22.4297 5.94891 22.4476L6.04526 22.7122C6.06311 22.7587 6.07024 22.8517 6.08095 22.8982C6.10593 22.9947 6.20942 23.0913 6.1666 23.1986C6.15946 23.2165 6.14876 23.2701 6.15232 23.2916L6.20585 23.6063C6.20585 23.6063 6.18087 23.6456 6.17374 23.6385L6.06311 23.5705C6.03456 23.5526 6.01315 23.4096 5.99887 23.5383L6.04883 23.7136C6.05597 23.7422 6.06311 23.7851 6.04883 23.7994C6.03813 23.8101 5.9953 23.828 5.98817 23.8423L5.92393 23.9889C5.91323 24.0104 5.85613 24.0283 5.84185 24.014C5.83115 24.0032 5.80973 23.9711 5.80617 23.9567L5.75977 23.8137C5.73122 23.7779 5.69911 23.7314 5.73122 23.7922L5.68483 23.9532C5.68483 23.9532 5.65272 23.9889 5.64915 23.9889L5.58134 24.014L5.49926 23.8495C5.49926 23.8495 5.45287 23.8065 5.4386 23.8137L5.37079 23.853L5.32083 23.8101C5.33511 23.8101 5.22091 23.9782 5.24232 23.9067C5.23162 23.9424 5.21377 23.7994 5.11028 23.7672L4.93899 23.71C4.89973 23.6957 4.84263 23.5348 4.76056 23.381C4.63565 23.1485 4.54644 22.8982 4.39656 22.655C4.12177 22.2151 3.8684 21.7753 3.77918 21.271L3.67569 20.6738C3.66142 20.6273 3.66855 20.5736 3.62573 20.663C3.57577 20.5415 3.5615 20.4306 3.54008 20.2911L3.50083 20.0193L3.47585 19.8083C3.47585 19.7833 3.5044 19.7368 3.53295 19.7189C3.62573 19.6653 3.50083 19.7475 3.65071 19.5508C3.66142 19.5365 3.64001 19.4793 3.65071 19.465C3.6864 19.4114 3.77205 19.3041 3.79346 19.2469C3.83628 19.1288 3.88624 19.0752 4.00044 19.0073C4.0611 18.9679 4.10393 18.8392 4.14675 18.7677C4.38942 18.3886 4.69275 18.0703 4.97824 17.727C5.16024 17.5052 5.33868 17.3121 5.5635 17.1262L5.69911 17.0153C5.75264 16.9724 5.76691 16.8866 5.79546 16.8329C6.1095 16.3108 5.93107 16.4073 6.09879 15.8459L6.11307 15.8888L6.13091 15.9639C6.18444 15.8566 6.07738 15.7922 6.08095 15.6027L6.14162 15.5741L6.06668 15.1128C6.05597 15.0555 6.00601 14.9626 6.00601 14.9125L5.99887 14.7015L5.93821 14.7408L5.9953 14.5906L5.94891 14.1543C5.93464 14.0256 5.93107 13.904 5.92393 13.7788L5.91679 13.6465L5.88824 13.718C5.88824 13.718 5.85613 13.7252 5.85613 13.7109L5.86326 13.6501L5.89181 13.3962C5.9275 13.0922 5.95962 12.8132 6.09879 12.5379C6.11664 12.5057 6.1095 12.4056 6.14519 12.4056C6.24868 12.4056 6.19872 12.2732 6.33789 11.98C6.46636 11.7153 6.56985 11.4471 6.76256 11.229L6.91244 11.0573C7.38707 10.5137 7.31927 10.503 7.94021 10.2348L7.9866 10.2133C7.9866 10.2133 7.74037 10.1275 7.56907 10.1597L7.51911 10.1704C7.51911 10.1704 7.51911 10.1525 7.51911 10.1347L7.14084 10.081C6.86248 10.0417 6.51632 10.3457 6.38785 10.5602C6.23797 10.8106 6.08809 11.0359 5.92036 11.2755C5.8597 11.3613 5.81687 11.465 5.78475 11.5651C5.6884 11.8727 5.35652 13.1137 5.33154 13.3783L5.27801 13.9934C5.24946 14.3153 5.12456 14.7909 5.06746 15.1628C5.02464 15.4632 4.88189 15.7314 4.72487 15.9925C4.45365 16.4467 4.40369 16.3609 4.22526 16.6434C4.16103 16.7435 3.91479 16.9259 3.80059 16.9938L3.52938 17.1512C3.07973 17.4158 2.94055 17.4874 2.38028 17.5267C2.30177 17.5339 2.30534 17.5267 2.39455 17.5017C2.34102 17.4909 1.79145 17.3765 1.8093 17.3837C1.67726 17.3443 1.53094 17.2263 1.47385 17.1297C1.43816 17.0689 1.40604 17.0403 1.37749 16.9903L1.23832 16.7471C1.20977 16.7006 1.17765 16.6613 1.15624 16.6183L1.0242 16.368C0.970668 16.2643 0.99208 16.0962 0.999217 15.9746V15.9067C0.999217 15.9067 1.04918 15.9317 1.04918 15.9389L1.07416 16.0461L1.08486 15.7386L1.03847 15.8781C1.05632 15.9103 1.03134 15.8602 1.02063 15.8423L1.00635 15.7028C1.00635 15.7028 1.01349 15.6242 1.02777 15.6206L1.09914 15.6063L1.14196 15.1485C1.12769 15.1128 1.13483 15.1199 1.18835 15.1628L1.12412 15.0162L1.08843 15.0591C1.08843 15.0591 1.07416 15.052 1.05632 15.0412L1.06702 14.9804L1.07416 14.9304L1.08843 14.8875L1.10271 14.8445L1.11341 14.8016C1.11341 14.8016 1.11341 14.7694 1.11341 14.7623V14.7265C1.10271 14.6622 1.09914 14.7122 1.11341 14.6514L1.12412 14.6157C1.12412 14.6157 1.13126 14.5871 1.13126 14.5835V14.5441L1.12055 14.4941C1.22047 14.3474 1.24545 14.1722 1.29898 14.0041C1.36322 13.8146 1.4453 13.6358 1.47741 13.4391L1.48812 13.3711H1.56306L1.45243 13.7502L1.25616 14.4011C1.25616 14.4011 1.28471 14.3939 1.28828 14.3796L1.30255 14.3331L1.39534 14.0292L1.51667 13.6429C1.54879 13.5428 1.56306 13.4284 1.58447 13.3175C1.59875 13.246 1.58447 13.2567 1.56306 13.3246L1.51667 13.3604C1.53451 13.2388 1.54522 13.153 1.57377 13.0529L1.74506 12.4556C1.79859 12.2732 1.84141 12.0909 1.88424 11.8977C1.91636 11.7511 1.88067 11.5651 1.89138 11.4078L1.94491 10.6926L1.95918 10.1275L1.98059 9.45876V9.03319V8.73994L1.68796 8.7757C1.62373 8.78285 1.55592 8.7757 1.49526 8.76139L0.99208 8.63623C0.838629 8.59689 0.503177 8.39662 0.560275 8.1892C0.560275 8.18205 0.538864 8.1892 0.535295 8.19278L0.492471 8.23211L0.431805 8.08907L0.364001 7.91741C0.364001 7.91741 0.321177 7.8888 0.31404 7.87449C0.242667 7.77078 0.128471 7.57051 0.142745 7.44177L0.149883 7.37025L0.182 7.34521L0.199843 7.42031C0.274785 7.38097 0.249804 7.29514 0.278353 7.23077L0.492471 6.74083C0.510315 6.70149 0.517452 6.61209 0.521021 6.5656C0.499609 6.51195 0.485334 6.47261 0.49604 6.52626C0.467491 6.59778 0.456785 6.61566 0.474628 6.55844L0.388981 6.2044C0.374707 6.14718 0.381844 6.03989 0.367569 5.98983C0.342589 5.91115 0.31404 5.80744 0.289059 5.71803L0.0785099 4.87405L0 4.72384C0.0428236 4.73457 0.0820786 4.7453 0.0892158 4.75603L0.128471 4.79894C0.128471 4.79894 0.160588 4.83471 0.153451 4.82755C0.146314 4.8204 0.142745 4.76318 0.149883 4.75603C0.296197 4.62371 0.0570982 4.58795 0.296197 4.47351L0.431805 4.62729L0.378275 4.46993C0.506746 4.43417 0.463922 4.30185 0.563844 4.41271C0.570981 4.41987 0.563844 4.41271 0.563844 4.40556L0.57455 4.34834C0.57455 4.34834 0.592393 4.31973 0.595962 4.31616L0.624511 4.28397L0.73157 4.3698L0.760119 4.26966L0.795805 4.24821L0.938551 4.40914L0.949256 4.33404C0.959962 4.26966 1.0349 4.42702 1.0813 4.39483L1.13839 4.35192C1.13839 4.35192 1.16337 4.38053 1.17051 4.38768L1.28114 4.54503L1.40604 4.731C1.75934 4.86689 1.33467 4.86689 1.82714 5.06358C1.88424 5.08504 1.97345 5.1208 1.99843 5.16014C2.04483 5.22809 2.07694 5.29962 2.18757 5.26385C2.22683 5.24955 2.23753 5.35326 2.26608 5.38187C2.32318 5.43909 2.44095 5.51061 2.51946 5.5571C2.56585 5.58214 2.59797 5.59644 2.53373 5.52134C2.52659 5.52492 2.54087 5.52134 2.56585 5.50346L2.67647 5.59287L2.64436 5.63578L3.11185 6.04347C3.15467 6.07923 3.1404 6.15791 3.3331 6.18652C3.52224 6.45831 3.72208 6.74798 3.81844 7.06984C3.88267 7.28442 3.83271 7.51687 3.80416 7.73144C3.73279 8.30006 3.63644 7.91741 3.7435 8.51464C3.77205 8.67199 3.75063 8.81504 3.7435 8.96882L3.68997 10.0059L3.66855 10.6031L3.56506 11.6474C3.54365 11.8584 3.49726 12.0587 3.43303 12.2589L3.36165 12.4878L3.12612 13.178L2.88346 13.929C2.81208 14.1508 2.72287 14.3618 2.6622 14.5835C2.56585 14.9268 2.53016 15.2665 2.52302 15.6206C2.52302 15.7672 2.48377 15.9317 2.51589 16.064C2.57655 16.3001 3.17608 15.8137 3.19036 15.6993C3.19393 15.6492 3.19036 15.6349 3.17608 15.6528C3.16895 15.6599 3.1404 15.6635 3.11899 15.6528L3.22961 15.5383L3.39734 15.2701C3.51867 15.077 3.42946 14.9268 3.53295 14.8159L3.57577 14.7086L3.58291 14.8016C3.58291 14.8016 3.58291 14.8588 3.59004 14.8517L3.60789 14.8195L3.6293 14.7802C3.64357 14.7516 3.68997 14.8875 3.68283 14.8159L3.67569 14.7551C3.67569 14.7551 3.65428 14.7301 3.65428 14.7229L3.62573 14.6622C3.62573 14.6622 3.61503 14.6622 3.56863 14.6836L3.67569 14.0292L3.70067 13.8754L3.68997 13.8146L3.75777 13.3747L3.83628 13.4605C3.84699 13.296 4.02185 13.3497 3.9362 13.0564L3.95048 12.874L3.86126 13.0743C3.87197 12.9706 3.87197 12.849 3.90052 12.756L4.05754 12.2124C4.11463 12.0122 4.15389 11.8405 4.26809 11.676C4.27522 11.6689 4.26809 11.7118 4.27522 11.7189L4.29663 11.7869L4.36801 11.5544L4.4144 11.4185C4.4144 11.4185 4.42867 11.3649 4.43581 11.3398C4.43581 11.3291 4.43224 11.3398 4.40726 11.3649L4.31805 11.6259C4.3002 11.651 4.2895 11.6438 4.25738 11.5973L4.33232 11.3899C4.36444 11.3005 4.40012 11.1753 4.46793 11.1217C4.4822 11.111 4.49648 11.0645 4.50718 11.0502C4.64993 10.8249 4.73914 10.7355 4.86405 10.5388C4.98181 10.6031 4.85334 10.3528 4.97824 10.3242C5.0175 10.3135 5.03891 10.3135 5.04248 10.3027C5.04605 10.292 5.04605 10.2563 5.05318 10.2491L5.17809 10.0631C5.21377 10.0059 5.28158 9.98088 5.33511 9.96658C5.39934 9.76274 6.04883 9.30856 6.23083 9.20484C6.27723 9.17981 6.32719 9.14405 6.37358 9.11186L6.41283 9.08325C6.41283 9.08325 6.44852 9.05822 6.4057 9.09041L6.24511 9.05822C6.35217 8.94736 6.37715 9.11544 6.6448 8.98312C6.7126 8.95093 6.79825 8.92948 6.86605 8.89729C7.18009 8.76497 7.85099 8.99027 8.20072 8.97597C8.25782 8.97239 8.26852 8.96881 8.22213 8.94378C8.12578 8.85795 8.04727 8.78643 7.95448 8.72206L7.35138 8.28218C7.14084 8.1284 6.93385 7.98893 6.7126 7.84946C6.49134 7.70999 6.30221 7.55263 6.10236 7.3917L5.67056 7.04839L5.39934 6.86242C5.14954 6.69434 4.94256 6.4905 4.72487 6.28307L4.38585 5.95764C4.48934 5.81101 4.1753 5.97552 4.16816 5.66797C4.09322 5.78598 3.72565 5.29961 3.67569 5.23882C3.56506 5.1065 3.44016 4.99206 3.31526 4.87762C3.16895 4.74173 2.78353 4.36265 2.68004 4.2339L2.12334 3.52224L1.14196 2.07029C0.938551 1.76631 0.838629 1.46591 0.867178 1.09398L0.899296 0.664837C0.899296 0.664837 0.945688 0.621922 0.952825 0.61477C0.959962 0.607617 0.963531 0.621922 0.970668 0.639803L0.99208 0.693447C0.99208 0.693447 1.0242 0.668413 1.02777 0.654108L1.06702 0.335825L1.09914 0.414502C1.09914 0.414502 1.10628 0.389468 1.11341 0.385892L1.14196 0.378739C1.17051 0.371587 1.17408 0.378739 1.20263 0.35013L1.23118 0.32152C1.23118 0.32152 1.25259 0.32152 1.25259 0.328672L1.28471 0.360858C1.40604 0.117675 1.39534 0.253572 1.52381 0.0854895L1.60588 0.0962181C1.68439 0.106947 1.67726 -0.0217971 1.72365 0.00323647C1.91992 0.106947 1.80216 -0.000339739 1.98416 0.0783371C2.00914 0.0890657 2.04126 0.0997944 2.05196 0.0926419C2.14832 0.02827 2.27322 0.192776 2.49804 0.346553L2.67291 0.468145L2.70859 0.493178L2.74785 0.518212C2.74785 0.518212 2.73714 0.536093 2.7193 0.550398C2.71216 0.564703 2.70502 0.579008 2.70859 0.575431L2.80138 0.636227C2.88346 0.68987 2.912 0.600465 3.12612 0.729209C3.46871 0.929477 4.31091 1.07253 4.68562 1.15478L5.24946 1.27995C5.3244 1.29783 5.40291 1.29425 5.47428 1.31213L5.99174 1.44088C6.09879 1.46591 6.19872 1.49094 6.30934 1.50167L6.64836 1.53028C6.7126 1.53386 6.76256 1.54101 6.82323 1.55174C7.14797 1.61253 7.44417 1.60538 7.59762 1.63757C7.81531 1.68406 8.00801 1.6483 8.31135 1.71267L8.56472 1.76274L9.01794 1.85214C9.55323 1.95943 9.85657 2.04168 10.3562 2.28486C10.6024 2.40288 10.6631 2.45295 10.8522 2.54593C10.9521 2.59242 11.1341 2.6103 11.1948 2.73189C11.3268 2.98938 11.4589 2.88567 11.6266 3.08594C11.6694 3.13958 11.7158 3.23614 11.7836 3.27548C11.8514 3.31481 11.9656 3.33985 12.012 3.38991C12.2333 3.61522 12.3903 3.86913 12.5295 4.14092L12.6722 4.41987C12.7436 4.56291 12.8007 4.70239 12.8506 4.85616L13.1076 5.6179C13.1468 5.65008 13.1897 5.66081 13.1683 5.61075L13.2539 5.1959C13.3253 4.84544 13.3217 4.70954 13.2967 4.36622L13.2717 3.9943C13.2717 3.94423 13.2717 3.86913 13.2717 3.81549V3.56873C13.261 3.2719 13.0576 3.30051 13.0434 3.14673C13.0862 3.08951 13.0826 3.07878 12.9934 3.13243C12.8292 2.95362 12.4474 2.40646 12.4117 2.17758C12.3867 2.03095 12.3832 1.90578 12.401 1.74485L12.4438 1.89148C12.4724 1.80207 12.5295 1.68764 12.5473 1.59108L12.6044 1.29067C12.6758 1.29067 12.7793 1.30856 12.8114 1.27637L12.9684 1.14763C12.9684 1.14763 13.0184 1.11902 13.0291 1.11186C13.0362 1.10829 13.0362 1.14405 13.0326 1.15478L13.0077 1.23703C13.0077 1.23703 13.0434 1.26207 13.0612 1.26564L13.1326 1.08683C13.1504 1.11902 13.1718 1.17624 13.1897 1.16908L13.2682 1.12617H13.4894L13.5394 1.33001L13.5929 1.26207C13.725 1.33717 13.857 1.41942 13.9855 1.48021C14.0676 1.51598 14.1282 1.53743 14.1925 1.60538C14.2674 1.68406 14.3566 1.70909 14.4494 1.75201C14.7385 1.88075 15.0168 2.00592 15.313 2.11678L15.3844 2.21692C15.3844 2.21692 15.4308 2.24553 15.4379 2.2348L15.4593 2.20261C15.52 2.15254 15.6092 2.27056 15.6663 2.28129L16.1374 2.36712C16.3872 2.41361 16.637 2.385 16.8903 2.3993L17.3721 2.42791L18.4498 2.49944C18.8781 2.52805 18.4962 2.44937 18.9637 2.51374C19.21 2.54593 19.6132 2.6997 19.7988 2.83918L19.9594 2.95719C20.0343 3.01441 20.1378 3.10024 20.1878 3.17534L20.3341 3.38276C20.3805 3.57945 20.384 3.60449 20.3341 3.76542L20.3769 3.7833C20.3769 3.7833 20.384 3.82621 20.3769 3.83337L20.2591 4.1445C20.1985 4.30543 20.1771 4.47709 20.1271 4.65232C20.1092 4.71312 20.1057 4.75961 20.1164 4.82398L20.0165 4.9563L19.9629 4.8955C19.9629 4.8955 19.9201 4.90623 19.8951 4.91696L19.9451 4.94915C19.9451 4.94915 19.9165 4.96345 19.9094 4.96345H19.8773C19.7809 5.02782 19.6881 5.03855 19.574 5.00637C19.4812 4.97776 19.3705 4.98491 19.2813 4.94915L18.7032 4.70954C18.6532 4.68808 18.6176 4.69166 18.5783 4.66662L18.4641 4.70239C18.2429 4.62371 18.1858 4.87405 18.118 4.81683L18.0501 4.76318L18.1715 4.70954C18.4962 4.50927 18.382 4.77033 18.3606 4.57364C18.3606 4.56649 18.3428 4.57364 18.3214 4.57722C18.1965 4.59152 18.0894 4.62371 17.9788 4.69166L17.7361 4.83828C17.7361 4.83828 17.704 4.89908 17.7111 4.90981L17.7361 4.94557C17.6612 4.97776 17.4685 5.29604 17.5184 5.35683C17.7004 5.20306 17.629 5.06716 17.8717 4.84901C17.8931 4.86689 17.9467 4.93126 17.9252 4.94557C17.9038 4.95987 17.8396 4.98491 17.8253 4.99921L17.6861 5.17445L17.7111 5.23882L17.5827 5.38544L17.5719 5.50704C17.5612 5.63578 17.6183 5.77525 17.6505 5.904L17.7183 6.15791L17.8289 6.58348C17.8146 6.61566 17.8003 6.69434 17.8182 6.72653C17.9324 6.91964 18.043 7.08772 18.1465 7.28799C18.1929 7.38097 18.1965 7.49899 18.3285 7.56336C18.4356 7.61343 18.6033 7.71714 18.5462 7.85661L18.7639 8.09264C18.7746 8.06761 18.7817 8.0533 18.7781 8.06045C18.7639 8.01396 18.7603 8.00681 18.7567 7.99251C18.7532 7.9782 18.796 7.9639 18.7996 7.97463L18.8281 8.02469C18.8816 8.12125 18.9601 8.19278 19.028 8.27503C19.1029 8.36801 19.1671 8.44311 19.2635 8.52536C19.3241 8.57543 19.367 8.66484 19.4669 8.68629C19.499 8.73636 19.5418 8.81146 19.574 8.84722L19.8702 9.16908C19.938 9.24418 20.02 9.3014 20.0771 9.39438C20.1164 9.46233 20.1878 9.49452 20.2449 9.54816C20.3448 9.64114 20.4269 9.78062 20.5054 9.88075L20.4304 9.91651C20.4304 9.91651 20.434 9.92724 20.4411 9.93082C20.459 9.93439 20.4947 9.94512 20.4947 9.94512C20.4947 9.94512 20.484 9.963 20.4768 9.97016L20.4625 9.99161L20.6303 10.174L20.7302 10.1668C20.748 10.1668 20.7694 10.2312 20.7873 10.2419C21.0978 10.478 21.0371 10.3778 21.3012 10.5817L21.2298 10.6318C21.2298 10.6318 21.2227 10.6496 21.2298 10.6568L21.2833 10.6818C21.3047 10.6926 21.3583 10.7247 21.3725 10.7104L21.4296 10.6425L21.8115 10.9107C22.1113 11.1181 22.2469 11.1503 22.486 11.5008C22.4217 11.4936 22.3753 11.4507 22.3254 11.4006L22.2112 11.2791L22.1826 11.322C22.3432 11.5866 22.6216 11.6224 22.5645 11.7511L22.6715 11.8441C22.6822 11.8119 22.7001 11.7547 22.7144 11.7654C22.7251 11.7726 22.7643 11.8012 22.7786 11.8155L23.1783 12.2661C23.1604 12.2947 23.1319 12.3197 23.1426 12.334L23.1961 12.402L23.3924 12.6523C23.4316 12.731 23.4459 12.8633 23.5851 12.8526L23.5994 12.9491C23.5994 12.9491 23.6208 12.9277 23.6244 12.9205L23.6565 12.8669C23.6957 12.9062 23.7457 12.9778 23.7814 13.0421L23.6422 13.0278C23.6707 13.0958 23.7457 13.1637 23.8349 13.1029L23.9634 13.296L23.8635 13.3175L24.0205 13.5428L24.1061 13.4856L24.2346 13.6787C24.2346 13.6966 24.2346 13.7288 24.2275 13.7216C24.2167 13.7145 24.1846 13.6966 24.1811 13.6858L24.1382 13.6251C24.1382 13.6251 24.1026 13.625 24.0954 13.6358C24.0633 13.7252 24.2917 13.9111 24.3595 14.0685L24.4202 13.9791L24.5665 14.1901L24.5236 14.233C24.5236 14.233 24.5486 14.2759 24.5593 14.2831C24.645 14.3439 24.6735 14.4404 24.7128 14.537C24.802 14.7516 24.9055 14.9554 25.009 15.1485C24.9911 15.0555 24.9769 15.009 24.9769 14.9268C25.0982 15.1592 25.1874 15.381 25.2766 15.6242L25.4693 16.157C25.53 16.3215 25.5942 16.5432 25.6371 16.7042C25.6478 16.7435 25.6192 16.8401 25.6085 16.8901L25.5157 16.6398L25.6478 17.2907C25.6192 17.3229 25.5978 17.3765 25.6121 17.4015C25.6264 17.423 25.7191 17.4301 25.712 17.4015L25.6228 16.9688C25.6192 16.9474 25.6264 16.9116 25.6406 16.8866C25.6478 16.8723 25.6799 16.9009 25.6835 16.9116L25.6942 16.9724L25.7655 17.398C25.7834 17.4981 25.8084 17.5911 25.7655 17.6841L25.7084 17.4301L25.6585 17.7198L25.7298 17.8021C25.6014 17.87 25.6085 17.9809 25.5728 18.0882C25.5371 18.1955 25.5157 18.2992 25.5122 18.4029C25.4372 18.4565 25.4301 18.689 25.3266 18.6318C25.3016 18.6174 25.2873 18.5924 25.2588 18.5495C25.2088 18.3385 25.2588 18.3063 25.1089 18.1239C25.1125 18.2348 25.1232 18.317 25.1446 18.4208C25.1589 18.4887 25.1053 18.6031 25.0447 18.5745C24.8912 18.4959 24.9947 18.3027 24.934 18.2026C24.8912 18.1311 24.8341 18.0667 24.7984 17.9666L24.7877 18.2348C24.6985 18.2098 24.6842 18.1347 24.6343 18.0846L24.5522 17.9952L24.5451 18.174C24.3773 18.2062 24.2453 18.1275 24.2025 17.9773C24.1596 17.8271 24.1168 17.6805 24.0811 17.5303C24.0383 17.3515 23.9776 17.2084 23.8742 17.0618L23.296 16.2536C23.1604 16.064 23.0676 15.8638 22.9713 15.6635C22.9356 15.5884 22.8821 15.5133 22.85 15.4346C22.7429 15.1592 22.6251 14.8839 22.4253 14.6622L22.2219 14.4369C22.1505 14.3582 22.0577 14.2723 21.9792 14.2044L21.5082 13.7896L21.2762 13.5929C21.212 13.5392 21.1763 13.5106 21.1049 13.5571C21.0549 13.5893 21.0585 13.6143 21.0371 13.693C21.0085 13.786 20.9336 13.8933 20.8801 13.9898C20.7659 14.1829 20.5518 14.7051 20.3626 14.9196L20.02 15.313L20.07 15.381C20.07 15.381 20.0486 15.4239 20.0379 15.4418L20.0914 15.6706L20.1592 15.5634L20.2127 15.7958C20.2377 15.9103 20.3162 16.0247 20.2056 16.1499L20.1878 15.8959L20.0843 15.8137C20.0664 15.9675 20.1949 15.7779 20.1628 16.0962L20.0914 16.039C20.1057 16.1141 20.12 16.1713 20.1414 16.2393L20.1556 16.2822C20.1556 16.2822 20.1949 16.3036 20.1985 16.2929L20.2342 16.225L20.2591 16.3823C20.2377 16.4145 20.2413 16.4145 20.2912 16.3609L20.2841 16.5719L20.2306 16.5575C20.2306 16.5575 20.2163 16.5504 20.1842 16.5254C20.2199 16.8365 20.277 16.9259 20.2342 17.3229L20.202 17.609C20.1806 17.7878 20.1592 17.9415 20.1485 18.1275L20.2234 18.031C20.2092 18.174 20.1985 18.267 20.1663 18.3957C20.1521 18.3135 20.1521 18.2527 20.1485 18.1525L19.9843 18.9143L19.7524 19.8799C19.6917 20.1409 19.6346 20.3913 19.5597 20.6452C19.5204 20.7775 19.4562 20.9098 19.4312 21.0457C19.4169 21.1172 19.4098 21.1923 19.3705 21.2531C19.2064 21.5142 19.1065 21.786 19.0743 22.1043C19.0779 22.1686 19.0708 22.1579 19.0422 22.0757L18.9994 22.2545L19.0708 22.2008C19.0494 22.2938 18.9994 22.3725 18.9387 22.4225C18.8959 22.4082 18.8674 22.4011 18.8781 22.4047C18.8852 22.4047 18.8781 22.4726 18.8709 22.4798L18.664 22.773C18.4962 22.7337 18.6925 22.5763 18.5854 22.4833L18.4712 22.7015C18.4605 22.7194 18.3856 22.7551 18.3785 22.7373L18.3428 22.655L18.407 22.3904C18.2964 22.5084 18.3035 22.6014 18.1679 22.5942C18.1572 22.6157 18.1429 22.6586 18.1358 22.6514L18.1072 22.6264C18.0858 22.6085 18.1144 22.5763 18.1144 22.4512C18.1144 22.4225 18.043 22.4011 18.0359 22.4118C18.0109 22.4619 17.9823 22.5155 17.9538 22.5155C17.886 22.5227 17.7611 22.3939 17.7682 22.3761L17.8039 22.2688C17.654 22.2223 17.6505 22.09 17.6826 21.9541L17.7968 21.4534C17.8325 21.296 17.8039 21.1351 17.8182 20.9742C17.8253 20.8705 17.8824 20.7525 17.8539 20.6273C17.8325 20.545 17.861 20.4842 17.8681 20.4056C17.9003 20.1552 17.8789 19.9049 17.8753 19.6474C17.8753 19.4829 17.9074 19.3112 17.9145 19.1432C17.9181 19.0287 17.9217 18.9035 17.9467 18.7963C17.9788 18.6532 17.9395 18.5423 17.9324 18.4136C17.9252 18.292 17.9217 18.1704 17.911 18.056C17.8896 17.8557 17.9502 17.634 17.8753 17.4266L17.5398 16.5111C17.5398 16.5111 17.5398 16.4467 17.5398 16.436C17.5398 16.4145 17.3007 16.5683 17.1116 16.604C16.7583 16.672 16.4086 16.6613 16.0553 16.6112C15.5592 16.5397 15.3523 16.6005 14.8705 16.5361L13.9676 16.4145L13.9426 16.4538ZM19.7595 12.4807C19.7595 12.2947 19.8951 12.1409 19.9665 11.9836L20.0379 11.8226C20.0557 11.7797 20.0629 11.6867 20.0664 11.6224C19.8987 11.5401 19.7274 11.4471 19.6203 11.2934C19.4669 11.0788 19.5454 11.3077 19.317 10.9572L19.0387 10.5316C18.9459 10.3886 18.846 10.2419 18.7639 10.0917C18.6247 9.83784 18.7103 10.0274 18.457 9.7234C18.2607 9.48737 18.1536 9.37293 17.911 9.17266C17.8182 9.09398 17.704 9.00815 17.6362 8.9116L17.4899 8.7149C17.3792 8.5647 17.2865 8.39304 17.158 8.26072C17.0902 8.19278 17.0509 8.14271 16.9938 8.06761L16.8439 7.85661C16.6441 7.57767 16.5442 7.28442 16.4835 6.94468L16.3515 6.2044C16.3229 6.04347 16.3729 5.70015 16.4086 5.51419C16.4907 5.07789 16.6013 5.20306 16.6084 4.95272C16.6084 4.93484 16.6512 4.95987 16.6798 4.9706L16.7476 4.84544C16.901 4.77034 16.8297 4.6559 17.0938 4.40914C17.1901 4.31973 17.2401 4.21602 17.4114 4.25894L17.3221 4.19099C17.4328 4.13377 17.5149 4.0837 17.6183 4.01575C17.6933 3.96926 18.0501 3.84767 18.1215 3.83337L18.4213 3.77257L18.4463 3.71893C18.4534 3.70105 18.5212 3.7082 18.5426 3.71177L18.7924 3.75111C18.8388 3.75827 18.9031 3.75111 18.9601 3.77257C19.1921 3.86555 19.392 4.01933 19.5989 4.17311C19.6061 4.0694 19.6311 3.97284 19.6525 3.86913C19.7096 3.60806 18.9209 3.34342 18.6961 3.36488C18.2393 3.4078 17.8146 3.43998 17.3614 3.42925L16.1873 3.40422C16.0767 3.40422 15.9732 3.39349 15.8661 3.36846L15.2523 3.22899L14.8776 3.11812C15.0204 3.67601 14.9026 3.48647 14.949 4.00502C14.999 4.55934 14.9811 4.87047 14.8848 5.41763C14.8241 5.75022 14.8848 5.8289 14.899 6.18294L14.9205 6.62282C14.9205 6.68719 14.9097 6.79805 14.8955 6.866L14.7777 7.44535C14.742 7.62058 14.7313 7.8137 14.7456 7.99608L14.7956 8.65411L14.8277 8.95809C14.8669 9.32286 14.8598 9.68048 14.8527 10.0488C14.8419 10.5567 15.0168 10.5853 14.8741 10.739L14.767 10.6532L14.8205 10.8857C14.8277 10.9143 14.7634 10.9822 14.7349 10.9715L14.5743 10.9286C14.585 10.9858 14.5743 11.0716 14.56 11.136V11.2469L14.3423 11.1718C14.3566 11.2469 14.3709 11.3077 14.3673 11.3542C14.3602 11.4078 14.1532 11.5187 14.1425 11.5222C14.1139 11.533 14.0604 11.4829 14.014 11.4471L13.8106 11.5723C13.7607 11.5294 13.7571 11.5222 13.7999 11.5008C13.6821 11.4793 13.5715 11.4293 13.4859 11.3255L13.2254 11.0108L13.2396 10.9143C13.0826 10.9035 13.0612 10.7712 13.0077 10.6747L12.7507 10.2098C12.5545 9.85572 12.4188 9.50167 12.2975 9.11544L12.2119 8.84722L11.9977 8.19635C11.9977 8.19635 12.0263 8.13198 12.037 8.1284C12.0548 8.12483 11.9692 8.08906 11.9621 8.06761C11.8193 7.71714 11.7836 7.21647 11.7586 6.82666C11.7158 6.22228 11.6373 5.98267 11.4482 5.45339C11.3625 5.21021 11.334 4.93127 11.2055 4.71312C11.0021 4.3698 10.3919 3.81906 9.99217 3.74038C9.97433 3.56515 9.82088 3.59018 9.71382 3.55084C9.60676 3.51151 9.50684 3.41852 9.38551 3.4221C9.32841 3.41495 9.23205 3.31839 9.17496 3.30409C8.92515 3.23614 8.68605 3.15746 8.43625 3.10739L7.95448 3.01441L7.25503 2.90713L7.2015 2.95004L7.03021 2.93574C7.03021 2.93574 7.01593 2.90355 7.02307 2.92143L7.11942 2.89282L6.34146 2.81414L6.12377 2.82487L6.18444 2.79269C6.24868 2.79984 6.23083 2.79269 6.18087 2.77838C6.06311 2.76408 5.94534 2.75692 5.85256 2.76408L5.80973 2.72831L5.46358 2.69613L5.35295 2.72116C5.33154 2.70328 5.36009 2.70328 5.42432 2.68182L4.98895 2.57454C4.8462 2.53877 4.38942 2.44579 4.21812 2.47798C4.26095 2.43864 4.27165 2.42791 4.22526 2.43149L3.80059 2.35639C3.78275 2.38142 3.76134 2.40645 3.75777 2.39573L3.73636 2.33851L3.35808 2.25268C3.35808 2.25268 3.32597 2.29559 3.30455 2.30274C3.27957 2.3099 3.23318 2.25268 3.22248 2.22764L2.95483 2.13824C2.9691 2.21692 2.98338 2.25625 3.02263 2.3099L3.59718 3.12885C3.71138 3.28978 3.87197 3.42925 4.01828 3.558C4.55714 4.02291 4.5393 4.08012 4.99252 4.53788L5.19593 4.74173C5.27087 4.81683 5.52781 5.00279 5.59205 5.06716L5.84899 5.31034C5.9846 5.43551 6.12021 5.50704 6.24868 5.63936L6.37001 5.7681C6.41997 5.82174 6.54487 5.904 6.60554 5.94333C6.63409 5.96122 6.74115 5.96122 6.76256 5.98267C6.78754 6.01128 6.79825 6.05062 6.82323 6.11142L6.88389 6.0685C6.95527 6.01486 7.03021 6.32241 7.11942 6.24731L7.37637 6.45473V6.49407C7.37637 6.49407 7.37993 6.54056 7.40491 6.55487L7.81531 6.81593L7.85456 6.84096L7.88668 6.86242L7.9188 6.88388L8.19358 7.06984C8.22927 7.06984 8.21856 7.06984 8.19358 7.06984L8.21143 6.98401L8.57899 7.26296C8.75743 7.39886 8.91445 7.52402 9.08574 7.67422L9.3748 7.93171C9.3748 7.93171 9.38551 7.98893 9.38551 8.00324C9.38551 8.01754 9.44974 7.99608 9.46045 8.00324L9.63174 8.13556C9.60319 8.17847 9.58178 8.20708 9.59962 8.20708L9.70311 8.22139C9.77449 8.24642 9.86727 8.3394 9.93151 8.4002L9.89582 8.43596C9.84586 8.48245 10.0493 8.49675 10.0671 8.61477C10.0814 8.70417 10.2063 8.68272 10.2491 8.72563C10.5489 9.02961 10.7701 9.39438 10.9664 9.76631L11.1448 10.1025L11.3126 10.4172C11.4054 10.5853 11.5303 10.7426 11.5053 10.9536C11.4517 10.9679 11.3697 10.925 11.3375 10.8892L11.3875 11.1539C11.3946 11.1861 11.2983 11.2183 11.2733 11.2004L11.1591 11.1145C11.1841 11.2254 11.1805 11.3291 11.1591 11.4614L10.9985 11.3255C10.9093 11.6152 11.0699 11.4865 10.9057 11.6045C10.8736 11.6259 10.8094 11.7332 10.7808 11.7046L10.6595 11.5973L10.5953 11.6903C10.5774 11.7153 10.4989 11.676 10.4739 11.6546L10.3026 11.4793C10.3026 11.4793 10.3062 11.4722 10.267 11.5222C10.2919 11.5508 10.267 11.533 10.2313 11.5044C10.1884 11.4436 10.1492 11.3828 10.1349 11.3112C9.64602 11.6045 9.53539 11.6689 8.94299 11.6939C8.51476 11.7118 8.13291 11.9192 7.86527 12.2482C7.79033 12.3412 7.67256 12.4556 7.71182 12.5844C7.70111 12.706 7.59048 12.7417 7.5548 12.9277L7.40135 13.6787C7.33711 13.9862 7.4977 14.8731 7.56907 15.2379C7.57621 15.2737 7.61546 15.3488 7.61903 15.3845L7.65472 15.7064C7.7368 16.4145 7.54766 16.3394 7.60476 16.7542C7.60833 16.79 7.61903 16.7364 7.64758 16.7149L7.88311 16.554L8.10793 16.3752L8.42197 16.1534L8.61111 16.0211C8.79668 15.8924 8.97154 15.7672 9.14641 15.617C9.27488 15.5061 9.38907 15.3702 9.52468 15.2737C9.73523 15.1235 9.93864 14.984 10.1313 14.8088C10.2563 14.6943 10.3883 14.5835 10.4989 14.4619L10.6738 14.2616L10.7166 14.0613C10.7166 14.0613 10.7166 14.0184 10.7166 14.0113C10.7166 14.0006 10.7559 14.0041 10.7666 14.0113L10.8451 14.0685C10.9272 14.0327 10.9985 14.0292 11.077 14.0685C11.1627 14.1114 11.2519 14.1293 11.3375 14.1651L12.5687 14.6514C12.9863 14.8159 13.3752 15.0019 13.807 15.1235C13.9426 15.1628 14.1996 15.1306 14.0925 15.17L14.0176 15.195L14.1889 15.1807C14.1318 15.2594 14.7777 15.3238 14.8134 15.3238C14.9383 15.3238 15.0025 15.3273 15.106 15.3488C15.2952 15.3845 15.5164 15.313 15.7127 15.4668L15.5521 15.4847L15.8198 15.5312L15.7876 15.4883C15.7056 15.381 15.9482 15.4954 16.2159 15.4847H16.2765C16.2765 15.4847 16.2551 15.5491 16.2444 15.5455L16.0589 15.5348C16.0196 15.5348 15.9875 15.5383 16.0232 15.5455C16.38 15.6027 16.4193 15.6242 16.7476 15.524L16.3836 15.1449L16.041 14.7837C15.9768 14.7158 15.809 14.6586 15.7305 14.5942C15.6592 14.537 15.7698 14.4512 15.6877 14.3868L15.7769 14.2902L15.7305 14.2223C15.7305 14.2223 15.7734 14.1937 15.8162 14.1758L15.7198 14.1329L15.8768 14.0363L16.1481 14.0077C16.2016 14.0041 16.2623 13.9827 16.3122 13.9648L16.6655 14.0113C16.7048 14.0149 16.7869 14.0578 16.819 14.0792C17.0045 14.1829 17.6219 14.866 17.8039 15.0734C17.9145 15.1986 18.2107 15.1843 18.5533 15.9353C18.5712 15.9746 18.5605 16.0497 18.6747 16.2393L18.7139 16.2929L18.6747 15.8065C18.6497 15.4883 18.3214 15.3309 18.7425 14.7909C18.7175 14.7015 18.7282 14.6228 18.7817 14.5441L19.0208 14.1937C19.1636 13.9827 19.3491 13.8003 19.474 13.575C19.574 13.389 19.6453 13.1601 19.7631 12.9849C19.7845 12.9527 19.7631 12.8633 19.7631 12.8276V12.4842L19.7595 12.4807ZM13.3538 4.20529L13.3396 3.69747C13.2896 3.81906 13.286 3.94065 13.3003 4.0694L13.3324 4.33046C13.3966 4.30185 13.3538 4.24821 13.3503 4.20529H13.3538ZM14.8955 4.61298C14.9169 4.37695 14.899 4.14807 14.8634 3.91562C14.8455 4.06582 14.8562 4.20172 14.8705 4.34476L14.8955 4.61298ZM13.3503 4.33404C13.3503 4.5057 13.3396 4.6702 13.3752 4.86332C13.4145 4.68451 13.3966 4.52 13.3503 4.33404ZM12.6972 4.99921C12.6794 4.81683 12.5723 4.58795 12.5152 4.46636C12.5116 4.45563 12.4581 4.45205 12.4617 4.46278L12.4938 4.54146C12.5616 4.70596 12.6258 4.86689 12.6972 5.00279V4.99921ZM13.1076 6.15076C13.0541 5.93261 12.9863 5.76452 12.9042 5.56783C12.8435 5.56783 13.0826 6.19009 13.1076 6.15076ZM2.18757 7.38097L2.20185 7.08415C2.16616 7.04123 2.09122 6.99832 2.12334 6.94825L2.03412 6.90891C1.95561 6.83024 1.88781 6.76944 1.80573 6.70149L1.64157 7.06627C1.58447 7.19501 1.48455 7.33091 1.53808 7.48826C1.56306 7.56336 1.97345 7.72071 2.04126 7.71356C2.23753 7.69568 2.184 7.48111 2.18757 7.38097ZM2.06267 9.89148L2.06981 9.11902C2.06981 9.07968 2.13404 9.01531 2.0484 8.99742L2.03412 9.56247L2.01985 9.79135C2.01985 9.83068 2.03055 9.86645 2.06624 9.89148H2.06267ZM3.60075 9.87002C3.54365 10.0846 3.56506 10.2884 3.58291 10.503C3.59718 10.2956 3.60789 10.0917 3.60075 9.87002ZM1.96632 11.7297L1.97345 11.5151C1.93063 11.6975 1.91992 11.8799 1.93777 12.0801L1.99843 11.8441L1.96989 11.7297H1.96632ZM20.748 13.786C20.6588 13.8611 20.5946 13.9684 20.5696 14.1007C20.6767 14.0327 20.7802 13.9505 20.748 13.786ZM20.3876 14.6836C20.5125 14.5227 20.3805 14.6335 20.4982 14.4583C20.5054 14.4476 20.4804 14.4225 20.4768 14.4225L20.3626 14.5227L20.0022 15.0985C20.1521 14.9876 20.2663 14.841 20.3912 14.68L20.3876 14.6836ZM12.0763 16.3322C12.1833 16.132 12.2868 15.9246 12.2583 15.7028L11.7337 15.5634C11.7337 15.8459 11.7337 16.1034 11.7194 16.3716L11.7087 16.579L11.6659 17.001C11.8229 16.8186 11.9406 16.5897 12.0798 16.3322H12.0763Z" fill="var(--fill-0, black)"/>
<g id="Group_2">
<path id="Vector_2" d="M37.4421 23.6492C32.0285 23.6492 29.1629 21.3425 28.8488 16.7292H32.0285C32.2105 18.2491 32.7137 19.3327 33.538 19.9728C34.3624 20.6166 35.6649 20.9348 37.4421 20.9348C40.686 20.9348 42.3097 19.887 42.3097 17.7878C42.3097 16.8687 41.9778 16.1749 41.3105 15.7028C40.6432 15.2308 39.4334 14.8231 37.6812 14.4833L35.797 14.1293C31.586 13.3425 29.4805 11.3506 29.4805 8.15344C29.4805 6.39751 30.1407 5.00279 31.4611 3.96569C32.7815 2.92858 34.5801 2.41361 36.8568 2.41361C42.2205 2.41361 44.9648 4.6559 45.0968 9.1369H41.9564C41.8779 7.67065 41.4318 6.63354 40.6218 6.02916C39.8117 5.42478 38.5555 5.12438 36.8533 5.12438C35.4936 5.12438 34.4445 5.38544 33.7129 5.91115C32.9813 6.43685 32.6137 7.16998 32.6137 8.1141C32.6137 9.00458 32.9278 9.67333 33.5559 10.1204C34.1839 10.5674 35.2296 10.9465 36.6963 11.2612L38.502 11.6152C40.9858 12.1123 42.7736 12.8204 43.8585 13.7395C44.9434 14.6586 45.4858 15.9424 45.4858 17.5947C45.4858 19.5079 44.7721 20.9956 43.3482 22.0578C41.9207 23.1199 39.9544 23.6492 37.4421 23.6492Z" fill="var(--fill-0, black)"/>
<path id="Vector_3" d="M62.9507 20.7417C61.0914 22.6836 58.7397 23.6528 55.8884 23.6528C53.037 23.6528 50.6817 22.6836 48.826 20.7417C46.9953 18.8284 46.0782 16.2571 46.0782 13.035C46.0782 9.8128 46.9953 7.2415 48.826 5.32823C50.6817 3.38991 53.037 2.41718 55.8884 2.41718C58.7397 2.41718 61.095 3.38634 62.9507 5.32823C64.7814 7.2415 65.6985 9.8128 65.6985 13.035C65.6985 16.2571 64.7814 18.8284 62.9507 20.7417ZM51.1385 18.7355C52.3162 20.1266 53.8971 20.8204 55.8884 20.8204C57.8797 20.8204 59.4606 20.1266 60.6382 18.7355C61.8159 17.3729 62.4047 15.4704 62.4047 13.035C62.4047 10.5996 61.8159 8.65768 60.6382 7.29515C59.4606 5.93261 57.8761 5.24955 55.8884 5.24955C53.9006 5.24955 52.3162 5.93261 51.1385 7.29515C49.9609 8.65768 49.372 10.571 49.372 13.035C49.372 15.499 49.9609 17.3729 51.1385 18.7355Z" fill="var(--fill-0, black)"/>
<path id="Vector_4" d="M76.9968 11.8906L80.3335 2.88567H83.7094L75.7442 23.1771H72.4468L64.5209 2.88567H67.9361L71.2728 11.9299C72.536 15.3273 73.3925 17.6626 73.8422 18.9322C73.9421 19.2147 74.3382 19.2147 74.4381 18.9322C74.9663 17.4266 75.8228 15.077 77.004 11.8906H76.9968Z" fill="var(--fill-0, black)"/>
<path id="Vector_5" d="M94.1977 2.57096C94.7222 2.57096 95.4895 2.58527 95.6715 2.6103V5.63936H94.4724C92.3776 5.63936 90.7503 6.15791 89.587 7.19144C88.4236 8.22854 87.8419 9.70194 87.8419 11.6152V23.1771H84.7015V2.88567H87.6849V5.68942C87.6849 5.89684 87.9561 5.9791 88.0667 5.80386C89.4371 3.6474 91.4819 2.57096 94.2012 2.57096H94.1977Z" fill="var(--fill-0, black)"/>
<path id="Vector_6" d="M112.854 20.6237H113.993V23.1807C113.468 23.2594 112.894 23.2987 112.266 23.2987C110.146 23.2987 109.007 22.3296 108.85 20.3877C107.437 22.5656 105.239 23.6528 102.259 23.6528C100.036 23.6528 98.2909 23.1342 97.0205 22.1007C95.75 21.0636 95.1184 19.6045 95.1184 17.7162C95.1184 14.047 97.6164 11.9478 102.612 11.4257L105.517 11.111C107.637 10.8749 108.697 9.94512 108.697 8.31794C108.697 7.19143 108.351 6.37963 107.659 5.87896C106.966 5.38187 105.796 5.13153 104.147 5.13153C102.395 5.13153 101.132 5.42478 100.361 6.01486C99.5899 6.60493 99.1509 7.64561 99.0474 9.14047H95.907C96.1675 4.6559 98.9154 2.41718 104.147 2.41718C109.379 2.41718 111.759 4.3841 111.759 8.31437V19.6403C111.759 20.2947 112.126 20.6237 112.858 20.6237H112.854ZM102.416 20.9742C104.09 20.9742 105.557 20.4628 106.813 19.44C108.069 18.4422 108.697 17.0153 108.697 15.1521V13.3246C108.697 13.085 108.444 12.9384 108.233 13.0457C107.68 13.3282 106.945 13.5178 106.028 13.6179L103.084 13.9719C101.381 14.1829 100.172 14.5763 99.4542 15.1521C98.7334 15.7279 98.3765 16.554 98.3765 17.6304C98.3765 18.7069 98.7155 19.4972 99.3972 20.0873C100.079 20.6774 101.085 20.9706 102.42 20.9706L102.416 20.9742Z" fill="var(--fill-0, black)"/>
</g>
</g>
</svg>
